<svg width="70" height="70" viewBox="0 0 70 70" fill="none" xmlns="http://www.w3.org/2000/svg">
<path d="M36.3367 13.4417L36.3989 13.7536L36.8624 13.6933L38.8824 13.4306L39.4005 13.3632L39.3105 12.8486C39.1556 11.9637 38.7912 11.2262 38.2039 10.6658L38.2023 10.6644C37.7024 10.1914 37.0724 9.88748 36.3341 9.73759L36.3331 9.37884L36.3318 8.88017H35.8331H34.6781H34.1774L34.1781 9.38084L34.1786 9.7328C33.3661 9.89231 32.6759 10.2605 32.1345 10.8499C31.4971 11.5397 31.1847 12.3965 31.1847 13.3809C31.1847 14.341 31.4579 15.1833 32.0197 15.8845C32.522 16.5137 33.2581 16.9721 34.1828 17.2863L34.1845 19.0993C34.0639 18.8979 33.9742 18.6639 33.9206 18.3923L33.8308 17.938L33.371 17.9927L31.3033 18.2385L30.7888 18.2997L30.8683 18.8117C31.0403 19.9192 31.4384 20.8332 32.1063 21.4983L32.1077 21.4996C32.6728 22.0581 33.3718 22.4143 34.1866 22.5834V23.6278V24.1278H34.6866H35.8428H36.3428V23.6278V22.5541C37.2829 22.337 38.0611 21.9082 38.6492 21.2424L36.3367 13.4417ZM36.3367 13.4417L36.338 14.6578C37.4626 14.9962 38.3237 15.4468 38.8325 16.0483L38.8329 16.0487C39.3865 16.7046 39.6456 17.5302 39.6457 18.4838C39.6483 19.5536 39.3215 20.4824 38.6493 21.2424L36.3367 13.4417ZM15.5 40.1823V14.5697L28 14.5698L28.5011 14.5698L28.5 14.0688L28.4704 0.500107L58.4999 0.500002V40.0325L36.0256 53.2783C34.5914 45.5273 27.8081 39.6582 19.6559 39.6582C18.2221 39.6582 16.8286 39.8399 15.5 40.1823ZM58.4999 63.5H35.5898L58.5 49.9963L58.4999 63.5ZM36.4376 19.4801L36.4376 19.4801L36.4344 19.4839C36.405 19.5186 36.374 19.5514 36.3414 19.5822L36.3403 18.0292C36.4011 18.0749 36.4484 18.1208 36.4847 18.1659L36.4847 18.1659L36.4897 18.172C36.6216 18.3304 36.6924 18.522 36.6924 18.7689C36.6924 19.0555 36.6083 19.2826 36.4376 19.4801ZM34.1713 13.2885C34.1713 13.2421 34.1743 13.1968 34.1803 13.1526L34.1806 13.4182C34.1743 13.3758 34.1713 13.3327 34.1713 13.2885Z" stroke="#A7CF43"/>
<path d="M26.4989 12.5H16.1401L26.4735 1.278L26.4989 12.5Z" stroke="#A7CF43"/>
<path d="M29.6094 64.4044C27.1331 67.5103 23.3101 69.5 19.024 69.5C11.5544 69.5 5.5 63.4551 5.5 56.0003C5.5 48.5433 11.5543 42.5 19.024 42.5C26.0097 42.5 31.7573 47.7846 32.4725 54.5669L29.8464 56.1089L29.777 56.1497L29.7239 56.2101L21.8742 65.1475L20.8753 66.2849L22.3552 65.9663L29.6094 64.4044Z" stroke="#A7CF43"/>
<path d="M62.4979 40.1139C63.5237 39.5237 64.0851 39.2475 64.3821 39.1245L65.3286 40.7002L65.3287 40.7002L66.2389 42.2149C66.2152 42.234 66.1892 42.2546 66.1606 42.2768C65.824 42.5377 65.1633 42.9901 63.8907 43.7232C63.8906 43.7232 63.8906 43.7233 63.8905 43.7233L59.2391 46.4009L59.2309 46.4056L59.2229 46.4105L37.3513 60.1205C37.2657 59.1828 37.0411 58.4404 36.7202 57.8557C36.3018 57.0933 35.7346 56.6266 35.1608 56.3519C34.9874 56.2688 34.8148 56.2039 34.6468 56.1534L36.227 55.2435L36.2271 55.2434L38.0808 54.1766L38.0809 54.1766L61.7379 40.5542L61.739 40.5536L62.4974 40.1142C62.4975 40.1141 62.4977 40.114 62.4979 40.1139Z" stroke="#A7CF43"/>
<path d="M34.3901 61.6474L34.39 61.6475L32.2305 62.0714L32.2304 62.0714L26.4617 63.2036L31.8732 57.5874C31.92 57.6086 31.9716 57.6332 32.0274 57.6614C32.3007 57.7999 32.6671 58.0237 33.0333 58.3617C33.7008 58.978 34.3887 59.9914 34.4878 61.6283L34.3901 61.6474ZM31.6001 57.4786L31.6012 57.4789L31.6008 57.4788L31.6001 57.4786Z" stroke="#A7CF43"/>
<path d="M49.9572 52.1589C49.56 50.945 48.9289 49.8634 48.0727 48.9137L48.5636 48.6284C49.4415 49.5704 50.0602 50.6546 50.4186 51.8907L49.9572 52.1589ZM42.7983 51.979L43.2998 51.6873C44.1421 52.6271 44.7381 53.725 45.083 54.9922L44.6488 55.2443C44.2561 54.0147 43.6381 52.9256 42.7983 51.979Z" stroke="#A7CF43"/>
<path d="M43 11H55V12H43V11Z" fill="#A7CF43"/>
<path d="M43 15H55V16H43V15Z" fill="#A7CF43"/>
<path d="M43 20H55V21H43V20Z" fill="#A7CF43"/>
<path d="M23 27H55V28H23V27Z" fill="#A7CF43"/>
<path d="M23 31H55V32H23V31Z" fill="#A7CF43"/>
<path d="M23 36H55V37H23V36Z" fill="#A7CF43"/>
<path d="M16.649 62H15.649V63H16.649V62ZM16.649 59.688H17.649V58.688H16.649V59.688ZM15.17 59.688H14.17V60.688H15.17V59.688ZM15.17 58.583V57.583H14.17V58.583H15.17ZM16.649 58.583V59.583H17.649V58.583H16.649ZM16.649 57.07H17.649V56.07H16.649V57.07ZM15.17 57.07H14.17V58.07H15.17V57.07ZM15.17 55.778V54.778H14.17V55.778H15.17ZM16.649 55.778V56.778H17.649V55.778H16.649ZM16.649 49.862V48.862H15.649V49.862H16.649ZM23.143 50.763L22.4992 51.5282L22.5052 51.5332L23.143 50.763ZM23.058 56.101L23.6949 56.872L23.7015 56.8665L23.058 56.101ZM18.179 57.07V56.07H17.179V57.07H18.179ZM18.179 58.583H17.179V59.583H18.179V58.583ZM20.984 58.583H21.984V57.583H20.984V58.583ZM20.984 59.688V60.688H21.984V59.688H20.984ZM18.179 59.688V58.688H17.179V59.688H18.179ZM18.179 62V63H19.179V62H18.179ZM21.783 55.268L21.276 54.406L21.2685 54.4105L21.783 55.268ZM18.179 51.154V50.154H17.179V51.154H18.179ZM18.179 55.778H17.179V56.778H18.179V55.778ZM17.649 62V59.688H15.649V62H17.649ZM16.649 58.688H15.17V60.688H16.649V58.688ZM16.17 59.688V58.583H14.17V59.688H16.17ZM15.17 59.583H16.649V57.583H15.17V59.583ZM17.649 58.583V57.07H15.649V58.583H17.649ZM16.649 56.07H15.17V58.07H16.649V56.07ZM16.17 57.07V55.778H14.17V57.07H16.17ZM15.17 56.778H16.649V54.778H15.17V56.778ZM17.649 55.778V49.862H15.649V55.778H17.649ZM16.649 50.862H19.845V48.862H16.649V50.862ZM19.845 50.862C21.2252 50.862 22.0453 51.1463 22.4992 51.5282L23.7868 49.9978C22.8127 49.1783 21.4341 48.862 19.845 48.862V50.862ZM22.5052 51.5332C22.9518 51.903 23.231 52.4636 23.231 53.381H25.231C25.231 52.0091 24.7849 50.8243 23.7808 49.9928L22.5052 51.5332ZM23.231 53.381C23.231 54.2853 22.9391 54.8945 22.4145 55.3355L23.7015 56.8665C24.7409 55.9928 25.231 54.7887 25.231 53.381H23.231ZM22.4211 55.33C21.8886 55.7699 21.0045 56.07 19.607 56.07V58.07C21.2469 58.07 22.6634 57.7241 23.6949 56.872L22.4211 55.33ZM19.607 56.07H18.179V58.07H19.607V56.07ZM17.179 57.07V58.583H19.179V57.07H17.179ZM18.179 59.583H20.984V57.583H18.179V59.583ZM19.984 58.583V59.688H21.984V58.583H19.984ZM20.984 58.688H18.179V60.688H20.984V58.688ZM17.179 59.688V62H19.179V59.688H17.179ZM18.179 61H16.649V63H18.179V61ZM19.386 56.778C20.5057 56.778 21.5115 56.5971 22.2975 56.1255L21.2685 54.4105C20.9212 54.6189 20.329 54.778 19.386 54.778V56.778ZM22.29 56.1299C23.27 55.5535 23.65 54.5419 23.65 53.432H21.65C21.65 54.0901 21.452 54.3025 21.276 54.4061L22.29 56.1299ZM23.65 53.432C23.65 52.4461 23.335 51.5425 22.5538 50.9287L21.3182 52.5013C21.489 52.6355 21.65 52.8766 21.65 53.432H23.65ZM22.5538 50.9287C21.818 50.3506 20.8051 50.154 19.709 50.154V52.154C20.6302 52.154 21.102 52.3314 21.3182 52.5013L22.5538 50.9287ZM19.709 50.154H18.179V52.154H19.709V50.154ZM17.179 51.154V55.778H19.179V51.154H17.179ZM18.179 56.778H19.386V54.778H18.179V56.778Z" fill="#A7CF43"/>
</svg>
