<svg width="70" height="71" viewBox="0 0 70 71" fill="none" xmlns="http://www.w3.org/2000/svg">
<g clip-path="url(#clip0_307_200)">
<path d="M69.5 29.5V69.5H65.5V51.5H55.5V29.5H69.5Z" stroke="#A7CF43"/>
<path d="M57.5 31.5H59.5V33.5H57.5V31.5ZM61.5 31.5H63.5V33.5H61.5V31.5ZM65.5 31.5H67.5V33.5H65.5V31.5ZM57.5 35.5H59.5V37.5H57.5V35.5ZM61.5 35.5H63.5V37.5H61.5V35.5ZM65.5 35.5H67.5V37.5H65.5V35.5ZM57.5 39.5H59.5V41.5H57.5V39.5ZM61.5 39.5H63.5V41.5H61.5V39.5ZM65.5 39.5H67.5V41.5H65.5V39.5ZM57.5 43.5H59.5V45.5H57.5V43.5ZM61.5 43.5H63.5V45.5H61.5V43.5ZM65.5 43.5H67.5V45.5H65.5V43.5ZM57.5 47.5H59.5V49.5H57.5V47.5ZM61.5 47.5H63.5V49.5H61.5V47.5ZM65.5 47.5H67.5V49.5H65.5V47.5Z" stroke="#A7CF43"/>
<rect x="46.5" y="36.5" width="7" height="15" stroke="#A7CF43"/>
<path d="M59.5 17.5V27.5H57.5V20.5H46.5V14.5H57.5V17.5H59.5Z" stroke="#A7CF43"/>
<path d="M46 22H56V23H46V22Z" fill="#A7CF43"/>
<path d="M46 24H56V25H46V24Z" fill="#A7CF43"/>
<path d="M46 26H56V27H46V26Z" fill="#A7CF43"/>
<path d="M46 28H54V29H46V28Z" fill="#A7CF43"/>
<path d="M46 30H54V31H46V30Z" fill="#A7CF43"/>
<path d="M46 32H54V33H46V32Z" fill="#A7CF43"/>
<path d="M46 34H54V35H46V34Z" fill="#A7CF43"/>
<rect x="39.5" y="53.5" width="24" height="16" stroke="#A7CF43"/>
<rect x="43.5" y="59.5" width="16" height="10" stroke="#A7CF43"/>
<rect x="44" y="61" width="15" height="1" fill="#A7CF43"/>
<rect x="52" y="62" width="7" height="1" transform="rotate(90 52 62)" fill="#A7CF43"/>
<path d="M7.99633 52C7.35446 53.5392 7 55.2282 7 57C7 59.7933 7.88101 62.3809 9.38032 64.5M28.8742 47.5C31.413 49.8726 33 53.251 33 57C33 60.493 31.6224 63.6642 29.3809 66" stroke="#A7CF43"/>
<path d="M44.5 12.5V51.5H37.5V69.5H29C38.5 63 37 51.5 30.5 46V12.5H32.5V10H35V7H36V0H39V7H40V10H42.5V12.5H44.5Z" stroke="#A7CF43"/>
<path d="M38 1L38 51L37 51L37 1L38 1Z" fill="#A7CF43"/>
<path d="M31 14H44V15H31V14Z" fill="#A7CF43"/>
<path d="M31 20H44V21H31V20Z" fill="#A7CF43"/>
<path d="M31 26H44V27H31V26Z" fill="#A7CF43"/>
<path d="M31 32H44V33H31V32Z" fill="#A7CF43"/>
<path d="M31 38H44V39H31V38Z" fill="#A7CF43"/>
<path d="M31 44H44V45H31V44Z" fill="#A7CF43"/>
<path d="M31 12H44V13H31V12Z" fill="#A7CF43"/>
<mask id="path-14-outside-1_307_200" maskUnits="userSpaceOnUse" x="11.0425" y="29" width="17" height="41" fill="black">
<rect fill="white" x="11.0425" y="29" width="17" height="41"/>
<path d="M24 66H26.5C26.7501 66 26.9576 66.2035 26.9576 66.4488V68.5512C26.9576 68.7965 26.7501 69 26.5 69H12.5001C12.25 69 12.0425 68.7965 12.0425 68.5512V66.4488C12.0425 66.2035 12.25 66 12.5001 66H15V64.4488C15 64.1975 15.2074 64 15.4576 64H16.4095L12.0793 48.353L12.903 47.928L14.953 46.8688L20.609 49.7892C20.9327 49.948 21.3412 49.6913 21.2742 49.3105L20.1881 43.1345L24.7642 38.7658C25.0408 38.5073 24.8792 38.0509 24.514 37.9998L18.1929 37.1021L17.052 34.828L16.6431 34.0261C20.1333 31.8717 23.9161 30.3037 26.3872 30.0045C26.5092 29.9866 26.6373 30.0225 26.7349 30.1063C26.8326 30.184 26.8874 30.2977 26.8997 30.4234C27.4244 38.7957 26.1905 51.6121 22.5479 64H23.5424C23.7927 64 24 64.1975 24 64.4488V66Z"/>
</mask>
<path d="M24 66H23V67H24V66ZM22.5479 64L21.5886 63.7179L21.2116 65H22.5479V64ZM26.8997 30.4234L27.8977 30.3609L27.8966 30.3438L27.895 30.3267L26.8997 30.4234ZM26.7349 30.1063L26.0834 30.8649L26.0976 30.8771L26.1122 30.8887L26.7349 30.1063ZM26.3872 30.0045L26.5074 30.9973L26.5201 30.9957L26.5327 30.9939L26.3872 30.0045ZM16.6431 34.0261L16.1179 33.1752C15.6748 33.4487 15.5157 34.0165 15.7523 34.4804L16.6431 34.0261ZM12.0793 48.353L11.6208 47.4642C11.2002 47.6812 10.9892 48.1635 11.1155 48.6197L12.0793 48.353ZM16.4095 64V65H17.7238L17.3732 63.7333L16.4095 64ZM15 66V67H16V66H15ZM12.903 47.928L13.3615 48.8168L13.3621 48.8165L12.903 47.928ZM14.953 46.8688L15.4118 45.9802L14.9529 45.7433L14.494 45.9804L14.953 46.8688ZM20.609 49.7892L20.1503 50.6778L20.1594 50.6825L20.1687 50.687L20.609 49.7892ZM21.2742 49.3105L20.2893 49.4837L20.2893 49.4838L21.2742 49.3105ZM20.1881 43.1345L19.4976 42.4112L19.1105 42.7807L19.2032 43.3077L20.1881 43.1345ZM24.7642 38.7658L24.0814 38.0351L24.0736 38.0425L24.7642 38.7658ZM24.514 37.9998L24.3734 38.9899L24.3754 38.9901L24.514 37.9998ZM18.1929 37.1021L17.2991 37.5505L17.5339 38.0186L18.0523 38.0922L18.1929 37.1021ZM17.052 34.828L17.9459 34.3796L17.9429 34.3737L17.052 34.828ZM26.5 65H24V67H26.5V65ZM25 66V64.4488H23V66H25ZM25 64.4488C25 63.6186 24.318 63 23.5424 63V65C23.2673 65 23 64.7764 23 64.4488H25ZM23.5424 63H22.5479V65H23.5424V63ZM23.5073 64.2821C27.1795 51.7933 28.4304 38.8602 27.8977 30.3609L25.9016 30.486C26.4184 38.7313 25.2014 51.431 21.5886 63.7179L23.5073 64.2821ZM27.895 30.3267C27.8604 29.9707 27.6963 29.5934 27.3576 29.3238L26.1122 30.8887C25.9689 30.7747 25.9145 30.6248 25.9043 30.5202L27.895 30.3267ZM27.3864 29.3476C27.069 29.075 26.6501 28.9551 26.2418 29.0151L26.5327 30.9939C26.3684 31.018 26.2057 30.9699 26.0834 30.8649L27.3864 29.3476ZM26.267 29.0118C23.587 29.3363 19.6592 30.9891 16.1179 33.1752L17.1684 34.877C20.6073 32.7542 24.2453 31.2712 26.5074 30.9973L26.267 29.0118ZM11.1155 48.6197L15.4457 64.2667L17.3732 63.7333L13.0431 48.0862L11.1155 48.6197ZM16.4095 63H15.4576V65H16.4095V63ZM15.4576 63C14.682 63 14 63.6186 14 64.4488H16C16 64.7764 15.7327 65 15.4576 65V63ZM14 64.4488V66H16V64.4488H14ZM15 65H12.5001V67H15V65ZM12.5001 65C11.7161 65 11.0425 65.633 11.0425 66.4488H13.0425C13.0425 66.774 12.7839 67 12.5001 67V65ZM11.0425 66.4488V68.5512H13.0425V66.4488H11.0425ZM11.0425 68.5512C11.0425 69.3671 11.7161 70 12.5001 70V68C12.7838 68 13.0425 68.226 13.0425 68.5512H11.0425ZM12.5001 70H26.5V68H12.5001V70ZM26.5 70C27.284 70 27.9576 69.3671 27.9576 68.5512H25.9576C25.9576 68.226 26.2162 68 26.5 68V70ZM27.9576 68.5512V66.4488H25.9576V68.5512H27.9576ZM27.9576 66.4488C27.9576 65.633 27.284 65 26.5 65V67C26.2162 67 25.9576 66.774 25.9576 66.4488H27.9576ZM13.3621 48.8165L15.4121 47.7572L14.494 45.9804L12.444 47.0396L13.3621 48.8165ZM14.4942 47.7573L20.1503 50.6778L21.0678 48.9007L15.4118 45.9802L14.4942 47.7573ZM20.1687 50.687C20.682 50.9388 21.2479 50.8548 21.6533 50.5772C22.0762 50.2875 22.3675 49.7538 22.259 49.1372L20.2893 49.4838C20.2478 49.2479 20.3685 49.033 20.523 48.9272C20.6599 48.8334 20.8598 48.7984 21.0494 48.8914L20.1687 50.687ZM22.259 49.1373L21.173 42.9613L19.2032 43.3077L20.2893 49.4837L22.259 49.1373ZM20.8786 43.8578L25.4547 39.4891L24.0736 38.0425L19.4976 42.4112L20.8786 43.8578ZM25.4469 39.4965C26.38 38.6246 25.7934 37.1692 24.6527 37.0095L24.3754 38.9901C24.1483 38.9584 23.9899 38.7959 23.9321 38.6242C23.8714 38.4439 23.9046 38.2003 24.0814 38.0351L25.4469 39.4965ZM24.6546 37.0097L18.3335 36.1121L18.0523 38.0922L24.3734 38.9899L24.6546 37.0097ZM19.0867 36.6537L17.9458 34.3796L16.1582 35.2764L17.2991 37.5505L19.0867 36.6537ZM15.7523 34.4804L16.1611 35.2823L17.9429 34.3737L17.534 33.5718L15.7523 34.4804ZM12.4446 47.0393L11.6208 47.4642L12.5377 49.2417L13.3615 48.8168L12.4446 47.0393Z" fill="#A7CF43" mask="url(#path-14-outside-1_307_200)"/>
<path d="M11.713 37.1021L5.39189 37.9998C5.22117 38.0237 5.0746 38.1434 5.01979 38.305L11.713 37.1021ZM11.713 37.1021L14.544 31.4767M11.713 37.1021L14.544 31.4767M14.544 31.4767C14.6966 31.1715 15.2091 31.1715 15.3617 31.4767H14.544ZM16.1961 34.2506L16.1961 34.2506L16.1974 34.2532L16.6048 35.0522L16.6063 35.0551L17.7457 37.3263L17.8631 37.5604L18.1224 37.5972L24.3392 38.48L19.8426 42.7728L19.649 42.9576L19.6954 43.2211L20.7657 49.3075L15.1822 46.4245L14.9527 46.306L14.7232 46.4246L12.6736 47.4837L12.6732 47.4839L11.8498 47.9086L11.8497 47.9087L9.13987 49.3076L10.2043 43.2206L10.2503 42.9574L10.057 42.7728L5.56121 38.4808L11.7833 37.5972L12.0421 37.5604L12.1597 37.3269L14.9528 31.7767L16.1961 34.2506ZM5.46128 38.495L5.46143 38.495L5.46128 38.495Z" stroke="#A7CF43"/>
<path d="M15.4064 37.5761L15.4064 37.5761L15.4078 37.5788L15.6124 37.9655L16.1849 39.0648L16.3043 39.2942L16.5606 39.3293L19.144 39.6827L17.2923 41.3859L17.0894 41.5726L17.1389 41.8437L17.5852 44.289L15.2232 43.1139L15.0005 43.0031L14.7777 43.114L13.748 43.6266L13.7477 43.6268L13.3342 43.8323L13.334 43.8324L12.4153 44.2893L12.8593 41.8432L12.9084 41.5723L12.7058 41.3859L10.8545 39.6831L13.4406 39.3293L13.6964 39.2943L13.816 39.0654L15.0004 36.7978L15.4064 37.5761ZM14.7621 36.341L14.7627 36.342L14.7621 36.341Z" stroke="#A7CF43"/>
<path d="M17.7426 53.9231L17.5024 53.7911L17.2619 53.9226L16.2973 54.4499L16.4901 53.2965L16.5323 53.0442L16.3525 52.8624L15.5283 52.0292L16.6463 51.8603L16.9112 51.8203L17.0246 51.5775L17.499 50.5619L17.9796 51.5795L18.0934 51.8203L18.3567 51.8603L19.4695 52.0292L18.6498 52.8636L18.4724 53.0442L18.513 53.2941L18.7006 54.4497L17.7426 53.9231ZM15.4548 52.0403C15.4548 52.0403 15.4548 52.0403 15.4547 52.0403L15.4548 52.0403Z" stroke="#A7CF43"/>
<path d="M19.7426 59.9231L19.5024 59.7911L19.2619 59.9226L18.2973 60.4499L18.4901 59.2965L18.5323 59.0442L18.3525 58.8624L17.5283 58.0292L18.6463 57.8603L18.9112 57.8203L19.0246 57.5775L19.499 56.5619L19.9796 57.5795L20.0934 57.8203L20.3567 57.8603L21.4695 58.0292L20.6498 58.8636L20.4724 59.0442L20.513 59.2941L20.7006 60.4497L19.7426 59.9231ZM17.4548 58.0403C17.4548 58.0403 17.4548 58.0403 17.4547 58.0403L17.4548 58.0403Z" stroke="#A7CF43"/>
<path d="M16 63H23V64H16V63Z" fill="#A7CF43"/>
<path d="M15 65H24V66H15V65Z" fill="#A7CF43"/>
</g>
<defs>
<clipPath id="clip0_307_200">
<rect width="70" height="70" fill="white" transform="translate(0 0.00195312)"/>
</clipPath>
</defs>
</svg>
