<svg width="70" height="71" viewBox="0 0 70 71" fill="none" xmlns="http://www.w3.org/2000/svg">
<g clip-path="url(#clip0_2_4478)">
<path d="M24.6228 70.002H11.3772C11.2771 70.002 11.1812 69.9625 11.1105 69.8923C11.0397 69.8221 11 69.7269 11 69.6276V39.1782C10.9988 39.0924 11.0285 39.009 11.0839 38.9431C11.1392 38.8772 11.2165 38.8331 11.3017 38.8188L24.5474 36.0338C24.5975 36.0128 24.6514 36.002 24.7058 36.002C24.7602 36.002 24.8141 36.0128 24.8642 36.0338C24.9063 36.0686 24.9402 36.112 24.9637 36.1612C24.9871 36.2103 24.9995 36.2639 25 36.3183V69.6276C25 69.7269 24.9602 69.8221 24.8895 69.8923C24.8188 69.9625 24.7228 70.002 24.6228 70.002ZM12 69.002H24V37.002L12 39.5794V69.002Z" fill="#A7CF43"/>
<path d="M46 70.002H36.5539V64.257C36.6295 64.0317 36.6495 63.792 36.6122 63.5577C36.575 63.3234 36.4816 63.1011 36.3396 62.909C36.1977 62.7169 36.0113 62.5605 35.7957 62.4526C35.5802 62.3448 35.3416 62.2886 35.0995 62.2886C34.8575 62.2886 34.6189 62.3448 34.4033 62.4526C34.1877 62.5605 34.0013 62.7169 33.8594 62.909C33.7175 63.1011 33.624 63.3234 33.5868 63.5577C33.5495 63.792 33.5695 64.0317 33.6451 64.257V70.002H24V0.00195312H46V70.002ZM37.7481 68.877L44.9768 69.002V1.00195H25V69.002H32.5428V64.257C32.5428 63.5806 32.817 62.932 33.3051 62.4538C33.7932 61.9756 34.4552 61.7069 35.1454 61.7069C35.8357 61.7069 36.4977 61.9756 36.9858 62.4538C37.4739 62.932 37.7481 63.5806 37.7481 64.257V68.877Z" fill="#A7CF43"/>
<path d="M14.5 45.502H16.5V47.502H14.5V45.502ZM19.5 40.502H21.5V42.502H19.5V40.502ZM19.5 45.502H21.5V47.502H19.5V45.502ZM14.5 51.502H16.5V53.502H14.5V51.502ZM19.5 51.502H21.5V53.502H19.5V51.502ZM14.5 57.502H16.5V59.502H14.5V57.502ZM19.5 57.502H21.5V59.502H19.5V57.502ZM14.5 63.502H16.5V65.502H14.5V63.502ZM19.5 63.502H21.5V65.502H19.5V63.502Z" stroke="#A7CF43"/>
<path d="M58 70.002H45V25.002H58V70.002ZM46 69.002H57V26.002H46V69.002Z" fill="#A7CF43"/>
<path d="M45.6099 31.002H24.3901C24.2866 31.002 24.1874 30.9493 24.1142 30.8555C24.0411 30.7617 24 30.6346 24 30.502C24 30.3693 24.0411 30.2422 24.1142 30.1484C24.1874 30.0546 24.2866 30.002 24.3901 30.002H45.6099C45.7134 30.002 45.8126 30.0546 45.8857 30.1484C45.9589 30.2422 46 30.3693 46 30.502C45.9961 30.633 45.9538 30.7573 45.8815 30.85C45.8091 30.9427 45.7122 30.997 45.6099 31.002Z" fill="#A7CF43"/>
<path d="M45.6099 21.002H24.3901C24.2866 21.002 24.1874 20.9493 24.1142 20.8555C24.0411 20.7617 24 20.6346 24 20.502C24 20.3693 24.0411 20.2422 24.1142 20.1484C24.1874 20.0546 24.2866 20.002 24.3901 20.002H45.6099C45.7134 20.002 45.8126 20.0546 45.8857 20.1484C45.9589 20.2422 46 20.3693 46 20.502C45.9961 20.633 45.9538 20.7573 45.8815 20.85C45.8091 20.9427 45.7122 20.997 45.6099 21.002Z" fill="#A7CF43"/>
<path d="M45.6099 11.002H24.3901C24.2866 11.002 24.1874 10.9493 24.1142 10.8555C24.0411 10.7617 24 10.6346 24 10.502C24 10.3693 24.0411 10.2422 24.1142 10.1484C24.1874 10.0546 24.2866 10.002 24.3901 10.002H45.6099C45.7134 10.002 45.8126 10.0546 45.8857 10.1484C45.9589 10.2422 46 10.3693 46 10.502C45.9961 10.633 45.9538 10.7573 45.8815 10.85C45.8091 10.9427 45.7122 10.997 45.6099 11.002Z" fill="#A7CF43"/>
<path d="M45.6099 41.002H24.3901C24.2866 41.002 24.1874 40.9493 24.1142 40.8555C24.0411 40.7617 24 40.6346 24 40.502C24 40.3693 24.0411 40.2422 24.1142 40.1484C24.1874 40.0546 24.2866 40.002 24.3901 40.002H45.6099C45.7134 40.002 45.8126 40.0546 45.8857 40.1484C45.9589 40.2422 46 40.3693 46 40.502C45.9961 40.633 45.9538 40.7573 45.8815 40.85C45.8091 40.9427 45.7122 40.997 45.6099 41.002Z" fill="#A7CF43"/>
<path d="M45.6099 50.002H24.3901C24.2866 50.002 24.1874 49.9493 24.1142 49.8555C24.0411 49.7617 24 49.6346 24 49.502C24 49.3693 24.0411 49.2422 24.1142 49.1484C24.1874 49.0546 24.2866 49.002 24.3901 49.002H45.6099C45.7134 49.002 45.8126 49.0546 45.8857 49.1484C45.9589 49.2422 46 49.3693 46 49.502C45.9961 49.633 45.9538 49.7573 45.8815 49.85C45.8091 49.9427 45.7122 49.997 45.6099 50.002Z" fill="#A7CF43"/>
<path d="M45.6099 59.002H24.3901C24.2866 59.002 24.1874 58.9493 24.1142 58.8555C24.0411 58.7617 24 58.6346 24 58.502C24 58.3693 24.0411 58.2422 24.1142 58.1484C24.1874 58.0546 24.2866 58.002 24.3901 58.002H45.6099C45.7134 58.002 45.8126 58.0546 45.8858 58.1484C45.9589 58.2422 46 58.3693 46 58.502C46 58.6346 45.9589 58.7617 45.8858 58.8555C45.8126 58.9493 45.7134 59.002 45.6099 59.002Z" fill="#A7CF43"/>
<path d="M31.5 59.002C31.3674 59.002 31.2402 58.9631 31.1464 58.8941C31.0527 58.825 31 58.7313 31 58.6336V0.870313C31 0.772618 31.0527 0.678924 31.1464 0.609843C31.2402 0.540762 31.3674 0.501953 31.5 0.501953C31.6326 0.501953 31.7598 0.540762 31.8536 0.609843C31.9473 0.678924 32 0.772618 32 0.870313V58.6336C32 58.7313 31.9473 58.825 31.8536 58.8941C31.7598 58.9631 31.6326 59.002 31.5 59.002Z" fill="#A7CF43"/>
<path d="M38.5 59.002C38.3674 59.002 38.2402 58.9623 38.1464 58.8918C38.0527 58.8212 38 58.7256 38 58.6258L38 0.878111C38 0.778348 38.0527 0.682671 38.1464 0.612127C38.2402 0.541584 38.3674 0.501953 38.5 0.501953C38.6326 0.501953 38.7598 0.541584 38.8536 0.612127C38.9473 0.682671 39 0.778348 39 0.878111V58.6258C39 58.7256 38.9473 58.8212 38.8536 58.8918C38.7598 58.9623 38.6326 59.002 38.5 59.002Z" fill="#A7CF43"/>
<path d="M70 69.002H0V70.002H70V69.002Z" fill="#A7CF43"/>
<path d="M20.52 37.502C20.3821 37.502 20.2498 37.4823 20.1523 37.4474C20.0548 37.4125 20 37.3651 20 37.3157V32.1882C20 32.1388 20.0548 32.0914 20.1523 32.0565C20.2498 32.0216 20.3821 32.002 20.52 32.002C20.6509 32.0056 20.7731 32.0268 20.8621 32.0613C20.9511 32.0959 21.0004 32.1412 21 32.1882V37.3157C21.0004 37.3627 20.9511 37.408 20.8621 37.4426C20.7731 37.4771 20.6509 37.4983 20.52 37.502Z" fill="#A7CF43"/>
<path d="M48.5 28.502H50.5V30.502H48.5V28.502ZM52.5 28.502H54.5V30.502H52.5V28.502ZM48.5 33.502H50.5V35.502H48.5V33.502ZM52.5 33.502H54.5V35.502H52.5V33.502ZM48.5 38.502H50.5V40.502H48.5V38.502ZM52.5 38.502H54.5V40.502H52.5V38.502ZM48.5 43.502H50.5V45.502H48.5V43.502ZM52.5 43.502H54.5V45.502H52.5V43.502ZM48.5 48.502H50.5V50.502H48.5V48.502ZM52.5 48.502H54.5V50.502H52.5V48.502ZM48.5 53.502H50.5V55.502H48.5V53.502ZM52.5 53.502H54.5V55.502H52.5V53.502ZM48.5 58.502H50.5V60.502H48.5V58.502ZM52.5 58.502H54.5V60.502H52.5V58.502ZM48.5 63.502H50.5V65.502H48.5V63.502ZM52.5 63.502H54.5V65.502H52.5V63.502Z" stroke="#A7CF43"/>
</g>
<defs>
<clipPath id="clip0_2_4478">
<rect width="70" height="70" fill="white" transform="translate(0 0.00195312)"/>
</clipPath>
</defs>
</svg>
