<svg width="70" height="71" viewBox="0 0 70 71" fill="none" xmlns="http://www.w3.org/2000/svg">
<g clip-path="url(#clip0_2_4525)">
<path d="M36.3367 13.4437L36.3989 13.7556L36.8624 13.6953L38.8824 13.4325L39.4005 13.3652L39.3105 12.8505C39.1556 11.9656 38.7912 11.2281 38.2039 10.6678L38.2023 10.6663C37.7024 10.1934 37.0724 9.88943 36.3341 9.73954L36.3331 9.38079L36.3318 8.88213H35.8331H34.6781H34.1774L34.1781 9.3828L34.1786 9.73475C33.3661 9.89426 32.6759 10.2625 32.1345 10.8518C31.4971 11.5417 31.1847 12.3985 31.1847 13.3829C31.1847 14.3429 31.4579 15.1853 32.0197 15.8865C32.522 16.5157 33.2581 16.9741 34.1828 17.2882L34.1845 19.1013C34.0639 18.8999 33.9742 18.6658 33.9206 18.3943L33.8308 17.94L33.371 17.9946L31.3033 18.2404L30.7888 18.3016L30.8683 18.8137C31.0403 19.9212 31.4384 20.8351 32.1063 21.5002L32.1077 21.5016C32.6728 22.06 33.3718 22.4163 34.1866 22.5853V23.6297V24.1297H34.6866H35.8428H36.3428V23.6297V22.5561C37.2829 22.339 38.0611 21.9102 38.6492 21.2444L36.3367 13.4437ZM36.3367 13.4437L36.338 14.6597C37.4626 14.9982 38.3237 15.4487 38.8325 16.0502L38.8329 16.0507C39.3865 16.7066 39.6456 17.5322 39.6457 18.4857C39.6483 19.5556 39.3215 20.4844 38.6493 21.2443L36.3367 13.4437ZM15.5 40.1843V14.5717L28 14.5718L28.5011 14.5718L28.5 14.0707L28.4704 0.50206L58.4999 0.501955V40.0345L36.0256 53.2803C34.5914 45.5293 27.8081 39.6602 19.6559 39.6602C18.2221 39.6602 16.8286 39.8419 15.5 40.1843ZM58.4999 63.5019H35.5898L58.5 49.9982L58.4999 63.5019ZM36.4376 19.4821L36.4376 19.482L36.4344 19.4859C36.405 19.5205 36.374 19.5533 36.3414 19.5842L36.3403 18.0311C36.4011 18.0768 36.4484 18.1228 36.4847 18.1678L36.4847 18.1678L36.4897 18.1739C36.6216 18.3324 36.6924 18.524 36.6924 18.7708C36.6924 19.0575 36.6083 19.2845 36.4376 19.4821ZM34.1713 13.2905C34.1713 13.2441 34.1743 13.1988 34.1803 13.1545L34.1806 13.4202C34.1743 13.3778 34.1713 13.3346 34.1713 13.2905Z" stroke="#A7CF43"/>
<path d="M26.4989 12.502H16.1401L26.4735 1.27995L26.4989 12.502Z" stroke="#A7CF43"/>
<path d="M29.6094 64.4063C27.1331 67.5123 23.3101 69.502 19.024 69.502C11.5544 69.502 5.5 63.457 5.5 56.0022C5.5 48.5453 11.5543 42.502 19.024 42.502C26.0097 42.502 31.7573 47.7865 32.4725 54.5688L29.8464 56.1109L29.777 56.1516L29.7239 56.2121L21.8742 65.1495L20.8753 66.2869L22.3552 65.9682L29.6094 64.4063Z" stroke="#A7CF43"/>
<path d="M62.4979 40.1158C63.5237 39.5257 64.0851 39.2494 64.3821 39.1264L65.3286 40.7021L65.3287 40.7022L66.2389 42.2168C66.2152 42.236 66.1892 42.2566 66.1606 42.2788C65.824 42.5396 65.1633 42.992 63.8907 43.7252C63.8906 43.7252 63.8906 43.7252 63.8905 43.7252L59.2391 46.4028L59.2309 46.4075L59.2229 46.4125L37.3513 60.1224C37.2657 59.1848 37.0411 58.4423 36.7202 57.8577C36.3018 57.0952 35.7346 56.6286 35.1608 56.3538C34.9874 56.2708 34.8148 56.2059 34.6468 56.1553L36.227 55.2455L36.2271 55.2454L38.0808 54.1786L38.0809 54.1785L61.7379 40.5562L61.739 40.5555L62.4974 40.1161C62.4975 40.116 62.4977 40.1159 62.4979 40.1158Z" stroke="#A7CF43"/>
<path d="M34.3901 61.6494L34.39 61.6494L32.2305 62.0733L32.2304 62.0733L26.4617 63.2055L31.8732 57.5893C31.92 57.6105 31.9716 57.6351 32.0274 57.6634C32.3007 57.8019 32.6671 58.0257 33.0333 58.3637C33.7008 58.9799 34.3887 59.9934 34.4878 61.6302L34.3901 61.6494ZM31.6001 57.4806L31.6012 57.4809L31.6008 57.4808L31.6001 57.4806Z" stroke="#A7CF43"/>
<path d="M49.9572 52.1609C49.56 50.9469 48.9289 49.8653 48.0727 48.9157L48.5636 48.6303C49.4415 49.5723 50.0602 50.6565 50.4186 51.8926L49.9572 52.1609ZM42.7983 51.981L43.2998 51.6893C44.1421 52.6291 44.7381 53.7269 45.083 54.9941L44.6488 55.2463C44.2561 54.0166 43.6381 52.9276 42.7983 51.981Z" stroke="#A7CF43"/>
<path d="M43 11.002H55V12.002H43V11.002Z" fill="#A7CF43"/>
<path d="M43 15.002H55V16.002H43V15.002Z" fill="#A7CF43"/>
<path d="M43 20.002H55V21.002H43V20.002Z" fill="#A7CF43"/>
<path d="M23 27.002H55V28.002H23V27.002Z" fill="#A7CF43"/>
<path d="M23 31.002H55V32.002H23V31.002Z" fill="#A7CF43"/>
<path d="M23 36.002H55V37.002H23V36.002Z" fill="#A7CF43"/>
<path d="M16.649 62.002H15.649V63.002H16.649V62.002ZM16.649 59.69H17.649V58.69H16.649V59.69ZM15.17 59.69H14.17V60.69H15.17V59.69ZM15.17 58.585V57.585H14.17V58.585H15.17ZM16.649 58.585V59.585H17.649V58.585H16.649ZM16.649 57.072H17.649V56.072H16.649V57.072ZM15.17 57.072H14.17V58.072H15.17V57.072ZM15.17 55.78V54.78H14.17V55.78H15.17ZM16.649 55.78V56.78H17.649V55.78H16.649ZM16.649 49.864V48.864H15.649V49.864H16.649ZM23.143 50.765L22.4992 51.5302L22.5052 51.5351L23.143 50.765ZM23.058 56.103L23.6949 56.8739L23.7015 56.8684L23.058 56.103ZM18.179 57.072V56.072H17.179V57.072H18.179ZM18.179 58.585H17.179V59.585H18.179V58.585ZM20.984 58.585H21.984V57.585H20.984V58.585ZM20.984 59.69V60.69H21.984V59.69H20.984ZM18.179 59.69V58.69H17.179V59.69H18.179ZM18.179 62.002V63.002H19.179V62.002H18.179ZM21.783 55.27L21.276 54.408L21.2685 54.4125L21.783 55.27ZM18.179 51.156V50.156H17.179V51.156H18.179ZM18.179 55.78H17.179V56.78H18.179V55.78ZM17.649 62.002V59.69H15.649V62.002H17.649ZM16.649 58.69H15.17V60.69H16.649V58.69ZM16.17 59.69V58.585H14.17V59.69H16.17ZM15.17 59.585H16.649V57.585H15.17V59.585ZM17.649 58.585V57.072H15.649V58.585H17.649ZM16.649 56.072H15.17V58.072H16.649V56.072ZM16.17 57.072V55.78H14.17V57.072H16.17ZM15.17 56.78H16.649V54.78H15.17V56.78ZM17.649 55.78V49.864H15.649V55.78H17.649ZM16.649 50.864H19.845V48.864H16.649V50.864ZM19.845 50.864C21.2252 50.864 22.0453 51.1483 22.4992 51.5302L23.7868 49.9997C22.8127 49.1803 21.4341 48.864 19.845 48.864V50.864ZM22.5052 51.5351C22.9518 51.905 23.231 52.4656 23.231 53.383H25.231C25.231 52.011 24.7849 50.8263 23.7808 49.9948L22.5052 51.5351ZM23.231 53.383C23.231 54.2872 22.9391 54.8965 22.4145 55.3375L23.7015 56.8684C24.7409 55.9947 25.231 54.7907 25.231 53.383H23.231ZM22.4211 55.332C21.8886 55.7719 21.0045 56.072 19.607 56.072V58.072C21.2469 58.072 22.6634 57.726 23.6949 56.8739L22.4211 55.332ZM19.607 56.072H18.179V58.072H19.607V56.072ZM17.179 57.072V58.585H19.179V57.072H17.179ZM18.179 59.585H20.984V57.585H18.179V59.585ZM19.984 58.585V59.69H21.984V58.585H19.984ZM20.984 58.69H18.179V60.69H20.984V58.69ZM17.179 59.69V62.002H19.179V59.69H17.179ZM18.179 61.002H16.649V63.002H18.179V61.002ZM19.386 56.78C20.5057 56.78 21.5115 56.5991 22.2975 56.1274L21.2685 54.4125C20.9212 54.6208 20.329 54.78 19.386 54.78V56.78ZM22.29 56.1319C23.27 55.5554 23.65 54.5438 23.65 53.434H21.65C21.65 54.0921 21.452 54.3045 21.276 54.408L22.29 56.1319ZM23.65 53.434C23.65 52.448 23.335 51.5444 22.5538 50.9306L21.3182 52.5033C21.489 52.6375 21.65 52.8785 21.65 53.434H23.65ZM22.5538 50.9306C21.818 50.3525 20.8051 50.156 19.709 50.156V52.156C20.6302 52.156 21.102 52.3334 21.3182 52.5033L22.5538 50.9306ZM19.709 50.156H18.179V52.156H19.709V50.156ZM17.179 51.156V55.78H19.179V51.156H17.179ZM18.179 56.78H19.386V54.78H18.179V56.78Z" fill="#A7CF43"/>
</g>
<defs>
<clipPath id="clip0_2_4525">
<rect width="70" height="70" fill="white" transform="translate(0 0.00195312)"/>
</clipPath>
</defs>
</svg>
