<svg width="70" height="71" viewBox="0 0 70 71" fill="none" xmlns="http://www.w3.org/2000/svg">
<g clip-path="url(#clip0_2_4576)">
<path d="M69.5 29.502V69.502H65.5V51.502H55.5V29.502H69.5Z" stroke="#A7CF43"/>
<path d="M57.5 31.502H59.5V33.502H57.5V31.502ZM61.5 31.502H63.5V33.502H61.5V31.502ZM65.5 31.502H67.5V33.502H65.5V31.502ZM57.5 35.502H59.5V37.502H57.5V35.502ZM61.5 35.502H63.5V37.502H61.5V35.502ZM65.5 35.502H67.5V37.502H65.5V35.502ZM57.5 39.502H59.5V41.502H57.5V39.502ZM61.5 39.502H63.5V41.502H61.5V39.502ZM65.5 39.502H67.5V41.502H65.5V39.502ZM57.5 43.502H59.5V45.502H57.5V43.502ZM61.5 43.502H63.5V45.502H61.5V43.502ZM65.5 43.502H67.5V45.502H65.5V43.502ZM57.5 47.502H59.5V49.502H57.5V47.502ZM61.5 47.502H63.5V49.502H61.5V47.502ZM65.5 47.502H67.5V49.502H65.5V47.502Z" stroke="#A7CF43"/>
<rect x="46.5" y="36.502" width="7" height="15" stroke="#A7CF43"/>
<path d="M59.5 17.502V27.502H57.5V20.502H46.5V14.502H57.5V17.502H59.5Z" stroke="#A7CF43"/>
<path d="M46 22.002H56V23.002H46V22.002Z" fill="#A7CF43"/>
<path d="M46 24.002H56V25.002H46V24.002Z" fill="#A7CF43"/>
<path d="M46 26.002H56V27.002H46V26.002Z" fill="#A7CF43"/>
<path d="M46 28.002H54V29.002H46V28.002Z" fill="#A7CF43"/>
<path d="M46 30.002H54V31.002H46V30.002Z" fill="#A7CF43"/>
<path d="M46 32.002H54V33.002H46V32.002Z" fill="#A7CF43"/>
<path d="M46 34.002H54V35.002H46V34.002Z" fill="#A7CF43"/>
<rect x="39.5" y="53.502" width="24" height="16" stroke="#A7CF43"/>
<rect x="43.5" y="59.502" width="16" height="10" stroke="#A7CF43"/>
<rect x="44" y="61.002" width="15" height="1" fill="#A7CF43"/>
<rect x="52" y="62.002" width="7" height="1" transform="rotate(90 52 62.002)" fill="#A7CF43"/>
<path d="M7.99633 52.002C7.35446 53.5411 7 55.2302 7 57.002C7 59.7953 7.88101 62.3829 9.38032 64.502M28.8742 47.502C31.413 49.8745 33 53.2529 33 57.002C33 60.4949 31.6224 63.6662 29.3809 66.002" stroke="#A7CF43"/>
<path d="M44.5 12.502V51.502H37.5V69.502H29C38.5 63.002 37 51.502 30.5 46.002V12.502H32.5V10.002H35V7.00195H36V0.00195312H39V7.00195H40V10.002H42.5V12.502H44.5Z" stroke="#A7CF43"/>
<path d="M38 1.00195L38 51.002L37 51.002L37 1.00195L38 1.00195Z" fill="#A7CF43"/>
<path d="M31 14.002H44V15.002H31V14.002Z" fill="#A7CF43"/>
<path d="M31 20.002H44V21.002H31V20.002Z" fill="#A7CF43"/>
<path d="M31 26.002H44V27.002H31V26.002Z" fill="#A7CF43"/>
<path d="M31 32.002H44V33.002H31V32.002Z" fill="#A7CF43"/>
<path d="M31 38.002H44V39.002H31V38.002Z" fill="#A7CF43"/>
<path d="M31 44.002H44V45.002H31V44.002Z" fill="#A7CF43"/>
<path d="M31 12.002H44V13.002H31V12.002Z" fill="#A7CF43"/>
<mask id="path-14-outside-1_2_4576" maskUnits="userSpaceOnUse" x="11.042" y="29.002" width="17" height="41" fill="black">
<rect fill="white" x="11.042" y="29.002" width="17" height="41"/>
<path d="M23.9995 66.002H26.4995C26.7496 66.002 26.9571 66.2054 26.9571 66.4508V68.5531C26.9571 68.7985 26.7496 69.002 26.4995 69.002H12.4996C12.2495 69.002 12.042 68.7985 12.042 68.5531V66.4508C12.042 66.2054 12.2495 66.002 12.4996 66.002H14.9995V64.4508C14.9995 64.1995 15.2069 64.002 15.4571 64.002H16.409L12.0788 48.3549L12.9025 47.93L14.9525 46.8707L20.6086 49.7912C20.9322 49.9499 21.3407 49.6932 21.2737 49.3124L20.1876 43.1364L24.7637 38.7678C25.0403 38.5093 24.8788 38.0529 24.5136 38.0018L18.1924 37.1041L17.0515 34.83L16.6426 34.0281C20.1328 31.8736 23.9156 30.3057 26.3867 30.0065C26.5087 29.9885 26.6368 30.0244 26.7344 30.1082C26.8321 30.186 26.8869 30.2997 26.8992 30.4254C27.4239 38.7977 26.19 51.6141 22.5474 64.002H23.5419C23.7922 64.002 23.9995 64.1995 23.9995 64.4508V66.002Z"/>
</mask>
<path d="M23.9995 66.002H22.9995V67.002H23.9995V66.002ZM22.5474 64.002L21.5881 63.7199L21.2111 65.002H22.5474V64.002ZM26.8992 30.4254L27.8972 30.3628L27.8961 30.3457L27.8945 30.3287L26.8992 30.4254ZM26.7344 30.1082L26.0829 30.8669L26.0971 30.879L26.1117 30.8907L26.7344 30.1082ZM26.3867 30.0065L26.5069 30.9992L26.5196 30.9977L26.5322 30.9958L26.3867 30.0065ZM16.6426 34.0281L16.1174 33.1771C15.6743 33.4506 15.5152 34.0184 15.7518 34.4823L16.6426 34.0281ZM12.0788 48.3549L11.6204 47.4662C11.1997 47.6832 10.9888 48.1654 11.115 48.6216L12.0788 48.3549ZM16.409 64.002V65.002H17.7233L17.3728 63.7352L16.409 64.002ZM14.9995 66.002V67.002H15.9995V66.002H14.9995ZM12.9025 47.93L13.361 48.8187L13.3616 48.8184L12.9025 47.93ZM14.9525 46.8707L15.4113 45.9822L14.9524 45.7452L14.4935 45.9823L14.9525 46.8707ZM20.6086 49.7912L20.1498 50.6797L20.159 50.6845L20.1682 50.689L20.6086 49.7912ZM21.2737 49.3124L20.2888 49.4856L20.2888 49.4857L21.2737 49.3124ZM20.1876 43.1364L19.4971 42.4131L19.11 42.7826L19.2027 43.3096L20.1876 43.1364ZM24.7637 38.7678L24.0809 38.037L24.0731 38.0444L24.7637 38.7678ZM24.5136 38.0018L24.373 38.9918L24.3749 38.9921L24.5136 38.0018ZM18.1924 37.1041L17.2986 37.5525L17.5334 38.0205L18.0518 38.0942L18.1924 37.1041ZM17.0515 34.83L17.9454 34.3815L17.9424 34.3757L17.0515 34.83ZM26.4995 65.002H23.9995V67.002H26.4995V65.002ZM24.9995 66.002V64.4508H22.9995V66.002H24.9995ZM24.9995 64.4508C24.9995 63.6206 24.3175 63.002 23.5419 63.002V65.002C23.2668 65.002 22.9995 64.7783 22.9995 64.4508H24.9995ZM23.5419 63.002H22.5474V65.002H23.5419V63.002ZM23.5068 64.284C27.179 51.7952 28.4299 38.8621 27.8972 30.3628L25.9011 30.4879C26.4179 38.7332 25.2009 51.4329 21.5881 63.7199L23.5068 64.284ZM27.8945 30.3287C27.8599 29.9727 27.6958 29.5953 27.3571 29.3258L26.1117 30.8907C25.9685 30.7767 25.914 30.6267 25.9039 30.5221L27.8945 30.3287ZM27.3859 29.3496C27.0685 29.077 26.6496 28.9571 26.2413 29.0171L26.5322 30.9958C26.3679 31.02 26.2052 30.9719 26.0829 30.8669L27.3859 29.3496ZM26.2665 29.0137C23.5865 29.3382 19.6587 30.9911 16.1174 33.1771L17.1679 34.879C20.6068 32.7562 24.2448 31.2731 26.5069 30.9992L26.2665 29.0137ZM11.115 48.6216L15.4452 64.2687L17.3728 63.7352L13.0426 48.0882L11.115 48.6216ZM16.409 63.002H15.4571V65.002H16.409V63.002ZM15.4571 63.002C14.6815 63.002 13.9995 63.6206 13.9995 64.4508H15.9995C15.9995 64.7783 15.7322 65.002 15.4571 65.002V63.002ZM13.9995 64.4508V66.002H15.9995V64.4508H13.9995ZM14.9995 65.002H12.4996V67.002H14.9995V65.002ZM12.4996 65.002C11.7156 65.002 11.042 65.635 11.042 66.4508H13.042C13.042 66.7759 12.7834 67.002 12.4996 67.002V65.002ZM11.042 66.4508V68.5531H13.042V66.4508H11.042ZM11.042 68.5531C11.042 69.369 11.7156 70.002 12.4996 70.002V68.002C12.7833 68.002 13.042 68.228 13.042 68.5531H11.042ZM12.4996 70.002H26.4995V68.002H12.4996V70.002ZM26.4995 70.002C27.2835 70.002 27.9571 69.369 27.9571 68.5531H25.9571C25.9571 68.228 26.2158 68.002 26.4995 68.002V70.002ZM27.9571 68.5531V66.4508H25.9571V68.5531H27.9571ZM27.9571 66.4508C27.9571 65.635 27.2835 65.002 26.4995 65.002V67.002C26.2157 67.002 25.9571 66.7759 25.9571 66.4508H27.9571ZM13.3616 48.8184L15.4116 47.7591L14.4935 45.9823L12.4435 47.0416L13.3616 48.8184ZM14.4937 47.7593L20.1498 50.6797L21.0674 48.9026L15.4113 45.9822L14.4937 47.7593ZM20.1682 50.689C20.6815 50.9407 21.2474 50.8568 21.6528 50.5791C22.0757 50.2894 22.3671 49.7558 22.2585 49.1391L20.2888 49.4857C20.2473 49.2499 20.368 49.035 20.5225 48.9291C20.6594 48.8353 20.8593 48.8003 21.0489 48.8933L20.1682 50.689ZM22.2586 49.1392L21.1725 42.9632L19.2027 43.3096L20.2888 49.4856L22.2586 49.1392ZM20.8781 43.8597L25.4542 39.4911L24.0731 38.0444L19.4971 42.4131L20.8781 43.8597ZM25.4464 39.4984C26.3795 38.6265 25.7929 37.1711 24.6522 37.0114L24.3749 38.9921C24.1478 38.9603 23.9894 38.7978 23.9316 38.6262C23.8709 38.4459 23.9042 38.2023 24.081 38.0371L25.4464 39.4984ZM24.6542 37.0117L18.333 36.114L18.0518 38.0942L24.373 38.9918L24.6542 37.0117ZM19.0862 36.6557L17.9454 34.3815L16.1577 35.2784L17.2986 37.5525L19.0862 36.6557ZM15.7518 34.4823L16.1607 35.2842L17.9424 34.3757L17.5335 33.5738L15.7518 34.4823ZM12.4441 47.0413L11.6204 47.4662L12.5372 49.2436L13.361 48.8187L12.4441 47.0413Z" fill="#A7CF43" mask="url(#path-14-outside-1_2_4576)"/>
<path d="M11.713 37.1041L5.39189 38.0018C5.22117 38.0257 5.0746 38.1454 5.01979 38.3069L11.713 37.1041ZM11.713 37.1041L14.544 31.4787M11.713 37.1041L14.544 31.4787M14.544 31.4787C14.6966 31.1735 15.2091 31.1735 15.3617 31.4787H14.544ZM16.1961 34.2526L16.1961 34.2526L16.1974 34.2552L16.6048 35.0542L16.6063 35.0571L17.7457 37.3283L17.8631 37.5623L18.1224 37.5991L24.3392 38.482L19.8426 42.7748L19.649 42.9595L19.6954 43.223L20.7657 49.3095L15.1822 46.4265L14.9527 46.308L14.7232 46.4265L12.6736 47.4856L12.6732 47.4858L11.8498 47.9106L11.8497 47.9106L9.13987 49.3095L10.2043 43.2226L10.2503 42.9593L10.057 42.7748L5.56121 38.4827L11.7833 37.5991L12.0421 37.5624L12.1597 37.3289L14.9528 31.7786L16.1961 34.2526ZM5.46128 38.4969L5.46143 38.4969L5.46128 38.4969Z" stroke="#A7CF43"/>
<path d="M15.4064 37.5781L15.4064 37.5781L15.4078 37.5807L15.6124 37.9674L16.1849 39.0668L16.3043 39.2962L16.5606 39.3312L19.144 39.6847L17.2923 41.3879L17.0894 41.5745L17.1389 41.8457L17.5852 44.2909L15.2232 43.1159L15.0005 43.0051L14.7777 43.116L13.748 43.6286L13.7477 43.6287L13.3342 43.8342L13.334 43.8343L12.4153 44.2913L12.8593 41.8452L12.9084 41.5743L12.7058 41.3879L10.8545 39.6851L13.4406 39.3312L13.6964 39.2962L13.816 39.0673L15.0004 36.7998L15.4064 37.5781ZM14.7621 36.343L14.7627 36.344L14.7621 36.343Z" stroke="#A7CF43"/>
<path d="M17.7426 53.9251L17.5024 53.793L17.2619 53.9245L16.2973 54.4519L16.4901 53.2984L16.5323 53.0462L16.3525 52.8643L15.5283 52.0311L16.6463 51.8623L16.9112 51.8223L17.0246 51.5795L17.499 50.5638L17.9796 51.5814L18.0934 51.8222L18.3567 51.8622L19.4695 52.0311L18.6498 52.8656L18.4724 53.0462L18.513 53.2961L18.7006 54.4517L17.7426 53.9251ZM15.4548 52.0422C15.4548 52.0422 15.4548 52.0422 15.4547 52.0422L15.4548 52.0422Z" stroke="#A7CF43"/>
<path d="M19.7426 59.9251L19.5024 59.793L19.2619 59.9245L18.2973 60.4519L18.4901 59.2984L18.5323 59.0462L18.3525 58.8643L17.5283 58.0311L18.6463 57.8623L18.9112 57.8223L19.0246 57.5795L19.499 56.5638L19.9796 57.5814L20.0934 57.8222L20.3567 57.8622L21.4695 58.0311L20.6498 58.8656L20.4724 59.0462L20.513 59.2961L20.7006 60.4517L19.7426 59.9251ZM17.4548 58.0422C17.4548 58.0422 17.4548 58.0422 17.4547 58.0422L17.4548 58.0422Z" stroke="#A7CF43"/>
<path d="M16 63.002H23V64.002H16V63.002Z" fill="#A7CF43"/>
<path d="M15 65.002H24V66.002H15V65.002Z" fill="#A7CF43"/>
</g>
<defs>
<clipPath id="clip0_2_4576">
<rect width="70" height="70" fill="white" transform="translate(0 0.00390625)"/>
</clipPath>
</defs>
</svg>
