<svg width="70" height="71" fill="none" xmlns="http://www.w3.org/2000/svg"><g clip-path="url(#clip0_2_4541)"><path d="M30 66.502h31.5v-57.5H23.666c-4.228 0-7.166 3.32-7.166 7.409v50.091H22" stroke="#A7CF43"/><path d="M65.594 63.002V4.4H28.598C24.408 4.4 21 5.306 21 9.502" stroke="#A7CF43"/><path d="M69.594 59.002V.4H32.598C28.408.4 25 .806 25 5.002m31.5 45.5v-4h-8v4h8zm-11 0v-4h-24v4h24zM25.1 65.394l3.4 3.4v-3.74l-3.4.34z" stroke="#A7CF43"/><path d="M26.9 65.394l-3.4-.34v3.74l3.4-3.4z" stroke="#A7CF43"/><path d="M26.207 56.604h0c-.12-.136-.294-.136-.414 0h0l-.159.178s0 0 0 0c-.235.266-.566.448-.893.55a2.044 2.044 0 01-1.05.058l-.234-.053h0l-.003-.001c-.113-.026-.192-.001-.238.031a.22.22 0 00-.091.174v.001l-.017.23h0v.003c-.027.356-.187.697-.392.967a1.972 1.972 0 01-.824.646h0l-.224.087s0 0 0 0c-.106.042-.146.103-.16.143-.013.039-.016.1.036.182 0 0 0 0 0 0l.127.195.001.002c.194.3.275.666.275 1.004 0 .339-.08.705-.274 1.004 0 0 0 0 0 0l-.128.2-.001.001c-.052.08-.049.141-.036.18.014.04.054.1.16.142 0 0 0 0 0 0l.224.087h0c.332.13.617.375.824.647.205.27.365.611.392.968v.002l.017.23s0 0 0 0c.007.09.046.144.09.175.047.032.127.058.24.031l.234-.055h.002a2.04 2.04 0 011.05.058c.326.102.657.284.892.55l.157.174h0l.004.004c.12.137.291.137.412 0h0l.003-.004.158-.175c.235-.265.566-.447.892-.548a2.05 2.05 0 011.05-.06h.002l.234.056s0 0 0 0c.113.027.192.001.239-.031a.22.22 0 00.09-.176h0l.019-.23v-.001c.026-.357.186-.698.39-.968.207-.272.493-.516.825-.646h0l.224-.088s0 0 0 0c.106-.042.146-.102.16-.143.013-.038.016-.099-.036-.18h0l-.129-.2h0a1.875 1.875 0 01-.274-1.004c0-.338.081-.704.274-1.004h0l.002-.003.127-.194c.052-.081.049-.143.036-.182-.014-.041-.054-.101-.157-.142l-.225-.087h0-.002a1.967 1.967 0 01-.824-.647 1.875 1.875 0 01-.391-.967l-.018-.232h0a.222.222 0 00-.091-.176c-.047-.032-.127-.057-.239-.031h-.003l-.234.054c-.346.08-.722.044-1.05-.058-.326-.102-.657-.284-.892-.55 0 0 0 0 0 0l-.159-.178z" stroke="#A7CF43"/><path d="M24.5 61a1.5 1.5 0 103 .003 1.5 1.5 0 00-3-.002z" stroke="#A7CF43"/><path d="M37.612 58.974a.5.5 0 00.776.631l-.776-.631zm2.768 1.72l.339.368.064-.06.04-.077-.443-.23zm.916-.702l-.484.126.484-.126zm1.098-.702l-.393.308.393-.308zm1.099 1.404l-.394.308.15.192h.244v-.5zm2.014-3.09l-.304.397.285.219.298-.2-.279-.416zm2.38-1.544l.305.396-.305-.397zM51 60.492a.5.5 0 100-1v1zm-12.612-.887a4.74 4.74 0 01.483-.513c.18-.163.324-.257.41-.288.04-.015.028-.002-.018-.01a.22.22 0 01-.135-.081c-.012-.018.007 0 .02.098.014.094.018.236.002.438l.996.081a3 3 0 00-.007-.655 1.214 1.214 0 00-.191-.536.782.782 0 00-.507-.329.966.966 0 00-.507.056c-.268.099-.525.296-.733.484a5.786 5.786 0 00-.589.624l.776.631zm.762-.356c-.039.47-.033.844.014 1.137.045.281.137.55.33.74.22.22.5.262.736.207.208-.048.376-.167.489-.271l-.677-.736c-.04.037-.058.037-.039.033a.225.225 0 01.193.057c.029.028-.014.006-.045-.188-.029-.183-.04-.47-.005-.898l-.996-.081zm1.674 1.676c.116-.223.282-.487.411-.622.03-.03.044-.04.044-.04a.32.32 0 01-.133.035.377.377 0 01-.288-.116c-.05-.054-.054-.094-.046-.064l.968-.252a.84.84 0 00-.19-.365.623.623 0 00-.485-.202.74.74 0 00-.371.126 1.27 1.27 0 00-.22.185c-.23.24-.45.608-.577.853l.887.462zm-.012-.807a.91.91 0 00.083.216.58.58 0 00.299.267.549.549 0 00.484-.047.697.697 0 00.183-.166 1.76 1.76 0 00.161-.264l.066-.128.063-.124a2.24 2.24 0 01.118-.205c.04-.059.058-.073.052-.069a.28.28 0 01-.21.041c-.107-.018-.14-.08-.11-.041l.787-.617a.831.831 0 00-.505-.327.726.726 0 00-.57.151c-.12.092-.21.21-.275.305-.067.1-.125.206-.174.3l-.07.136a10.17 10.17 0 01-.104.199l-.016.027a.365.365 0 01.084-.07.451.451 0 01.612.148c.016.029.016.04.01.016l-.968.252zm1.189-.52l1.098 1.404.788-.616-1.099-1.405-.787.617zm1.492 1.596c.27 0 .588-.037.895-.134.303-.096.629-.263.872-.546.254-.297.385-.685.343-1.145-.04-.443-.238-.932-.593-1.476l-.837.546c.304.468.414.8.434 1.02.019.204-.036.322-.107.404-.082.096-.22.182-.415.244-.192.06-.405.087-.592.087v1zm1.517-3.3a6.635 6.635 0 01-.347-.587 1.32 1.32 0 01-.116-.28c-.004-.017.002-.004-.002.029a.381.381 0 01-.271.312.257.257 0 01-.092.01c-.006 0 .001 0 .024.007.021.007.05.017.087.034.075.032.166.08.27.142.207.123.436.284.64.44l.608-.793a7.887 7.887 0 00-.737-.507 3.556 3.556 0 00-.379-.198 1.414 1.414 0 00-.408-.12c-.134-.013-.412-.008-.604.235-.174.222-.143.482-.114.62.065.299.275.697.604 1.201l.837-.546zm.776.126c.487-.328 1.19-.797 1.716-1.142a30.242 30.242 0 01.66-.423c.006-.003.006-.003.002 0-.003 0-.01.004-.02.008a.449.449 0 01-.19.039.499.499 0 01-.425-.763.424.424 0 01.08-.097l-.026.02.609.794a1.473 1.473 0 00.118-.1c.007-.009.038-.04.067-.087a.5.5 0 00-.547-.752c-.064.016-.115.044-.117.045a3.06 3.06 0 00-.137.08c-.133.08-.359.227-.622.4-.53.347-1.237.82-1.726 1.147l.558.83zm1.797-2.357c-.182.14-.509.473-.84.867-.337.403-.715.91-.99 1.416a3.814 3.814 0 00-.326.782c-.07.258-.105.55-.032.832.077.304.268.556.565.719.278.152.624.213 1.012.213v-1c-.299 0-.457-.05-.532-.09-.056-.031-.068-.057-.077-.09-.013-.052-.017-.154.03-.322.044-.164.126-.356.24-.568.23-.425.562-.874.876-1.249.322-.383.59-.646.683-.717l-.609-.793zm-.611 4.829a14.307 14.307 0 001.223-.037c.007-.001.045-.006.086-.018a.502.502 0 00.063-.94.48.48 0 00-.126-.036c-.054-.008-.101-.006-.104-.006a1.56 1.56 0 00-.23.028 1.497 1.497 0 00-.327.1.86.86 0 00-.393.325.706.706 0 00-.02.696c.094.187.255.346.439.487l.609-.794c-.137-.104-.159-.152-.151-.138a.3.3 0 01-.025.272c-.044.072-.091.082-.056.066a.564.564 0 01.113-.032c.049-.009.08-.01.074-.01h-.017c-.003 0-.028 0-.06-.005-.01-.002-.063-.01-.125-.036a.498.498 0 01.06-.938c.048-.014.083-.014.04-.01-.09.008-.39.026-1.073.026v1zm.611.599c.877.672 1.806.392 2.435.064.318-.166.602-.364.803-.502a3.9 3.9 0 01.24-.156c.028-.016.04-.02.039-.02l-.024.007a.337.337 0 01-.076.008v-1a.725.725 0 00-.262.053 1.302 1.302 0 00-.172.083c-.098.056-.207.13-.309.199-.215.147-.447.309-.701.441-.515.269-.96.34-1.364.03l-.609.793zM38 63.002h13v1H38v-1z" fill="#A7CF43"/><path fill-rule="evenodd" clip-rule="evenodd" d="M20.974 18.002H57v1.05H20.974v-1.05zm0 2.625H57v1.05H20.974v-1.05zM57 23.256H20.974v1.05H57v-1.05zm-36.026 2.626H57v1.05H20.974v-1.05zM57 28.507H20.974v1.05H57v-1.05zm-36.026 2.625H57v1.052H20.974v-1.052zM57 33.762H20.974v1.05H57v-1.05zm-36.026 2.625H57v1.05H20.974v-1.05zM57 39.012H38.986v1.05H57v-1.05z" fill="#A7CF43"/><path d="M13.5 64.502v-27h-2v27h2z" stroke="#A7CF43"/><path d="M11 65.002h3v2h-3v-2zm1.144-31h.714l1.142 3h-3l1.144-3zM10.31 59.547l.69-.545v2.664h-.69v-2.12zM10 50.742h.309v11.183H10V50.742zm.31 1.64V51.38a.526.526 0 01.375.5.525.525 0 01-.375.502z" fill="#A7CF43"/></g><defs><clipPath id="clip0_2_4541"><path fill="#fff" transform="translate(0 .002)" d="M0 0h70v70H0z"/></clipPath></defs></svg>