<svg width="70" height="70" viewBox="0 0 70 70" fill="none" xmlns="http://www.w3.org/2000/svg">
<g clip-path="url(#clip0_321_373)">
<path d="M30 66.5H61.5V9H23.6655C19.4378 9 16.4998 12.3197 16.5 16.409V66.5H22" stroke="#A7CF43"/>
<path d="M65.5938 63L65.5937 4.39844H28.5976C24.4072 4.39844 20.9996 5.30449 20.9998 9.5" stroke="#A7CF43"/>
<path d="M69.5938 59L69.5937 0.398438H32.5976C28.4072 0.398438 24.9996 0.804298 24.9998 4.99981" stroke="#A7CF43"/>
<path d="M56.5 46.5H48.5V50.5H56.5V46.5Z" stroke="#A7CF43"/>
<path d="M45.5 46.5H21.5V50.5H45.5V46.5Z" stroke="#A7CF43"/>
<path d="M25.0996 65.3925L28.5 68.7929V65.0525L25.0996 65.3925Z" stroke="#A7CF43"/>
<path d="M26.9004 65.3925L23.5 65.0525V68.7929L26.9004 65.3925Z" stroke="#A7CF43"/>
<path d="M26.2075 56.6023L26.2071 56.6018C26.0865 56.4661 25.9132 56.4661 25.7927 56.6018L25.7923 56.6023L25.6344 56.7797C25.6342 56.7799 25.634 56.7801 25.6338 56.7803C25.3987 57.046 25.0679 57.2284 24.7413 57.3299C24.4141 57.4317 24.0383 57.4688 23.6917 57.3881L23.4574 57.3348L23.4574 57.3348L23.4537 57.334C23.3415 57.3076 23.2622 57.333 23.2157 57.3653C23.171 57.3964 23.1321 57.45 23.125 57.5391C23.125 57.5394 23.125 57.5397 23.125 57.5401L23.1085 57.7706L23.1085 57.7706L23.1083 57.773C23.0811 58.1289 22.9211 58.4701 22.7157 58.7403C22.5095 59.0116 22.2239 59.256 21.8923 59.3861L21.8913 59.3865L21.6679 59.4736C21.6678 59.4736 21.6676 59.4737 21.6674 59.4738C21.5624 59.5152 21.5222 59.5757 21.5085 59.6161C21.4953 59.6549 21.492 59.7167 21.544 59.7978C21.5442 59.798 21.5443 59.7983 21.5445 59.7986L21.6712 59.993L21.6724 59.9949C21.866 60.2949 21.9474 60.6607 21.9474 60.9994C21.9474 61.3379 21.8661 61.7034 21.6729 62.0033C21.6727 62.0035 21.6726 62.0037 21.6724 62.004L21.5451 62.2024L21.5438 62.2044C21.4919 62.2845 21.4952 62.3452 21.5082 62.3834C21.5218 62.4233 21.562 62.484 21.6679 62.5258C21.668 62.5259 21.6681 62.5259 21.6682 62.526L21.892 62.6136L21.8924 62.6138C22.2239 62.7439 22.5095 62.9883 22.7158 63.2597C22.9213 63.5302 23.0813 63.8716 23.1083 64.228L23.1085 64.23L23.125 64.4595C23.125 64.4597 23.125 64.46 23.125 64.4603C23.1321 64.5504 23.1713 64.604 23.2157 64.635C23.2621 64.6672 23.3415 64.6927 23.4541 64.6663L23.6894 64.6109L23.6908 64.6106C24.0376 64.5301 24.4139 64.5674 24.7415 64.6695C25.0675 64.7711 25.3978 64.9532 25.6328 65.2184L25.7903 65.3933L25.7903 65.3932L25.794 65.3974C25.9144 65.5342 26.0853 65.5342 26.2057 65.3974L26.2057 65.3974L26.2094 65.3932L26.367 65.2183C26.6021 64.9533 26.9326 64.7712 27.2585 64.6696C27.586 64.5676 27.9625 64.53 28.3091 64.6106L28.3106 64.611L28.545 64.6663C28.5451 64.6663 28.5451 64.6663 28.5452 64.6663C28.6576 64.6927 28.7371 64.6672 28.7836 64.6349C28.8283 64.6038 28.8678 64.5497 28.8748 64.4589L28.8749 64.4582L28.8929 64.2295C28.8929 64.229 28.893 64.2284 28.893 64.2279C28.9194 63.8713 29.0788 63.53 29.2839 63.2597C29.4902 62.9879 29.776 62.7436 30.1079 62.6136L30.1082 62.6135L30.3319 62.5261C30.3321 62.526 30.3323 62.5259 30.3325 62.5258C30.4378 62.4842 30.478 62.4236 30.4917 62.3834C30.5048 62.3449 30.508 62.284 30.4562 62.2039L30.4558 62.2033L30.3272 62.0038L30.3271 62.0035C30.134 61.7036 30.0528 61.338 30.0528 60.9994C30.0528 60.6609 30.134 60.2952 30.3271 59.9953L30.327 59.9953L30.3291 59.9921L30.4565 59.7976C30.5081 59.7167 30.5049 59.6548 30.4916 59.6156C30.4778 59.5749 30.4378 59.5149 30.3347 59.4738L30.11 59.387L30.11 59.387L30.108 59.3862C29.7761 59.2563 29.4904 59.0116 29.2844 58.7402C29.0793 58.47 28.9198 58.1289 28.893 57.773L28.8749 57.541L28.8748 57.5405C28.8679 57.4509 28.8288 57.3968 28.7837 57.3655C28.7369 57.333 28.6575 57.3076 28.5454 57.334L28.5421 57.3348L28.3083 57.388C27.962 57.4689 27.586 57.4316 27.2589 57.33C26.9323 57.2285 26.6012 57.0461 26.366 56.7804C26.3657 56.7801 26.3655 56.7799 26.3653 56.7797L26.2075 56.6023Z" stroke="#A7CF43"/>
<path d="M24.5 60.9986C24.5 61.8281 25.1714 62.5 25.9998 62.5C26.8289 62.5 27.5 61.828 27.5 60.9986C27.5 60.1706 26.8296 59.5 25.9998 59.5C25.1706 59.5 24.5 60.1706 24.5 60.9986Z" stroke="#A7CF43"/>
<path d="M37.6124 58.9718C37.438 59.1859 37.4701 59.5008 37.6842 59.6753C37.8982 59.8497 38.2132 59.8176 38.3876 59.6035L37.6124 58.9718ZM40.3803 60.6921L40.7189 61.06L40.7832 61.0008L40.8236 60.9233L40.3803 60.6921ZM41.2958 59.9899L40.812 60.116L41.2958 59.9899ZM42.3944 59.2876L42.0005 59.5957L42.3944 59.2876ZM43.493 60.6921L43.0991 61.0002L43.2493 61.1921H43.493V60.6921ZM45.507 57.6024L45.2027 57.9991L45.4876 58.2176L45.7857 58.0175L45.507 57.6024ZM47.8873 56.0575L48.1916 56.4542L47.8873 56.0575ZM51 60.4899C51.2761 60.4899 51.5 60.266 51.5 59.9899C51.5 59.7137 51.2761 59.4899 51 59.4899V60.4899ZM38.3876 59.6035C38.5279 59.4313 38.699 59.2449 38.8705 59.0901C39.0516 58.9267 39.1952 58.8334 39.2814 58.8015C39.3213 58.7867 39.3088 58.8005 39.263 58.7922C39.1997 58.7808 39.1503 58.7419 39.1284 58.7106C39.1164 58.6934 39.1354 58.7111 39.1488 58.809C39.1618 58.9032 39.166 59.0446 39.1495 59.247L40.1462 59.3282C40.1664 59.0813 40.1656 58.8622 40.1395 58.6726C40.1139 58.4867 40.0596 58.2972 39.9477 58.1372C39.8259 57.9632 39.6498 57.8459 39.4406 57.8081C39.2488 57.7735 39.0712 57.813 38.9341 57.8637C38.6663 57.9629 38.4087 58.1599 38.2006 58.3476C37.9831 58.5439 37.7772 58.7695 37.6124 58.9718L38.3876 59.6035ZM39.1495 59.247C39.1112 59.7178 39.1172 60.0915 39.1639 60.3838C39.2088 60.6653 39.3012 60.935 39.4931 61.1248C39.7149 61.3442 39.9945 61.3856 40.2297 61.331C40.4381 61.2825 40.6061 61.1638 40.7189 61.06L40.0417 60.3242C40.0019 60.3609 39.9838 60.3615 40.0033 60.3569C40.0497 60.3461 40.1378 60.3559 40.1964 60.4139C40.225 60.4422 40.1824 60.4204 40.1514 60.2262C40.1221 60.0426 40.1114 59.7563 40.1462 59.3282L39.1495 59.247ZM40.8236 60.9233C40.9401 60.6999 41.1059 60.4357 41.2351 60.3013C41.2647 60.2705 41.2795 60.2604 41.2786 60.261C41.2773 60.2618 41.2665 60.2688 41.2467 60.2764C41.2268 60.284 41.1919 60.2945 41.1451 60.2964C41.0304 60.3009 40.9244 60.2514 40.8579 60.1797C40.8079 60.1258 40.804 60.0857 40.812 60.116L41.7796 59.8637C41.7509 59.7536 41.6986 59.6155 41.5909 59.4995C41.4667 59.3656 41.2938 59.2897 41.1054 59.2972C40.9428 59.3036 40.8141 59.3703 40.7336 59.4225C40.6483 59.478 40.5746 59.5454 40.5142 59.6082C40.2833 59.8484 40.0646 60.2161 39.9369 60.4609L40.8236 60.9233ZM40.812 60.116C40.8284 60.1789 40.8531 60.2567 40.8945 60.3317C40.9314 60.3985 41.0194 60.5324 41.194 60.5994C41.3968 60.6771 41.5763 60.6149 41.6785 60.5525C41.7694 60.497 41.8296 60.4261 41.8613 60.3857C41.9272 60.3014 41.9831 60.1976 42.0223 60.1223C42.0442 60.0803 42.0666 60.036 42.0876 59.9943C42.1092 59.9515 42.13 59.9105 42.1511 59.8699C42.1941 59.7875 42.2328 59.7188 42.2689 59.6648C42.3081 59.6064 42.3268 59.5922 42.321 59.5966C42.3099 59.6051 42.2311 59.6585 42.1111 59.6376C42.0035 59.6188 41.971 59.558 42.0005 59.5957L42.7882 58.9796C42.6804 58.8417 42.5163 58.6931 42.2828 58.6524C42.0369 58.6095 41.838 58.7068 41.7124 58.8031C41.5922 58.8953 41.5022 59.0128 41.4384 59.1079C41.3715 59.2076 41.3129 59.3145 41.2644 59.4076C41.2398 59.4548 41.2162 59.5015 41.1948 59.5438C41.173 59.5872 41.1538 59.6251 41.1357 59.6599C41.1175 59.6948 41.1027 59.7219 41.0903 59.7428C41.0773 59.765 41.0719 59.7718 41.0736 59.7696C41.0748 59.768 41.081 59.7602 41.0923 59.7491C41.103 59.7386 41.1247 59.719 41.1576 59.6989C41.2284 59.6557 41.3779 59.5989 41.552 59.6657C41.6981 59.7217 41.7588 59.8282 41.77 59.8483C41.7856 59.8767 41.7861 59.8886 41.7796 59.8637L40.812 60.116ZM42.0005 59.5957C42.44 60.1575 42.916 60.7661 43.0991 61.0002L43.8868 60.384C43.7037 60.15 43.2276 59.5414 42.7882 58.9796L42.0005 59.5957ZM43.493 61.1921C43.7636 61.1921 44.0813 61.1553 44.3875 61.0581C44.6908 60.9618 45.0167 60.7952 45.2596 60.5119C45.5141 60.2149 45.6448 59.8267 45.6027 59.3668C45.5623 58.9244 45.3649 58.4349 45.0104 57.8911L44.1727 58.4372C44.4773 58.9046 44.5867 59.2366 44.6069 59.4578C44.6255 59.6615 44.5708 59.7789 44.5003 59.8611C44.4181 59.957 44.2794 60.0432 44.085 60.1049C43.8934 60.1657 43.6801 60.1921 43.493 60.1921V61.1921ZM45.0104 57.8911C44.8516 57.6474 44.7389 57.4548 44.6628 57.3054C44.5842 57.1512 44.5552 57.0637 44.5471 57.0259C44.5433 57.0081 44.5485 57.0209 44.5453 57.054C44.5418 57.0897 44.5269 57.161 44.4697 57.2338C44.4099 57.31 44.334 57.3493 44.2743 57.3659C44.2213 57.3806 44.1855 57.3767 44.1818 57.3763C44.1761 57.3757 44.1831 57.3759 44.2056 57.3829C44.2272 57.3896 44.2563 57.4004 44.2933 57.4167C44.3679 57.4494 44.459 57.4975 44.5626 57.5591C44.7697 57.6821 44.9994 57.8431 45.2027 57.9991L45.8113 57.2056C45.5875 57.0339 45.3243 56.8485 45.0736 56.6995C44.9484 56.625 44.8194 56.5556 44.6953 56.5011C44.578 56.4495 44.4343 56.3975 44.2873 56.3819C44.1529 56.3676 43.8746 56.3727 43.6834 56.6159C43.5092 56.8377 43.5397 57.098 43.5695 57.2361C43.6337 57.5348 43.8439 57.9329 44.1727 58.4372L45.0104 57.8911ZM45.7857 58.0175C46.2734 57.6902 46.9767 57.2208 47.5025 56.8758C47.767 56.7022 47.9811 56.5638 48.1005 56.4902C48.1303 56.4718 48.1503 56.4599 48.162 56.4532C48.1682 56.4497 48.168 56.45 48.1635 56.4523C48.1612 56.4534 48.1542 56.4569 48.144 56.4613C48.1382 56.4638 48.1106 56.4758 48.0724 56.4853C48.0549 56.4897 48.0111 56.4999 47.9537 56.5C47.9135 56.5001 47.7544 56.4971 47.6141 56.3672C47.4399 56.206 47.4442 56.0001 47.4635 55.9033C47.4809 55.8161 47.5175 55.7561 47.5292 55.7373C47.5572 55.6925 47.5859 55.6634 47.5901 55.6591C47.5996 55.6492 47.6068 55.6427 47.609 55.6407C47.6148 55.6355 47.6102 55.6399 47.583 55.6608L48.1916 56.4542C48.2194 56.433 48.2519 56.4075 48.2784 56.3836C48.2859 56.3769 48.2973 56.3663 48.31 56.3532C48.3173 56.3456 48.3482 56.3138 48.3774 56.267C48.3897 56.2473 48.4267 56.1865 48.4442 56.0986C48.4637 56.0012 48.4679 55.7948 48.2934 55.6333C48.1526 55.503 47.993 55.4999 47.952 55.5C47.8938 55.5001 47.8489 55.5105 47.8301 55.5151C47.7659 55.5312 47.7147 55.5586 47.7128 55.5595C47.696 55.568 47.6799 55.577 47.667 55.5843C47.6405 55.5994 47.6091 55.6184 47.5758 55.6389C47.4426 55.721 47.2173 55.8669 46.9539 56.0397C46.4238 56.3876 45.7172 56.8592 45.2284 57.1872L45.7857 58.0175ZM47.583 55.6608C47.4005 55.8008 47.0743 56.1341 46.7434 56.5282C46.4055 56.9306 46.0277 57.4378 45.7539 57.9437C45.617 58.1967 45.4986 58.463 45.4272 58.7256C45.357 58.9839 45.3222 59.2754 45.3945 59.5585C45.4722 59.8621 45.6631 60.1141 45.9598 60.2767C46.2381 60.4292 46.5836 60.4899 46.9718 60.4899V59.4899C46.6735 59.4899 46.5154 59.4409 46.4404 59.3997C46.3837 59.3687 46.3716 59.343 46.3634 59.3109C46.3499 59.2582 46.3465 59.1559 46.3922 58.9879C46.4367 58.8242 46.5186 58.6319 46.6334 58.4197C46.8631 57.9952 47.1949 57.5456 47.5092 57.1712C47.8306 56.7884 48.0995 56.5249 48.1916 56.4542L47.583 55.6608ZM46.9718 60.4899C47.6621 60.4899 48.0019 60.4724 48.141 60.4591C48.1594 60.4573 48.1776 60.4553 48.1946 60.453C48.2016 60.4521 48.2397 60.4472 48.2812 60.4353C48.2919 60.4322 48.3228 60.4231 48.3596 60.4056C48.3773 60.3972 48.414 60.3786 48.4546 60.3466C48.486 60.3218 48.5808 60.2423 48.6243 60.0967C48.681 59.9066 48.6157 59.7337 48.5237 59.627C48.4518 59.5437 48.3719 59.5069 48.3444 59.4949C48.2819 59.4677 48.2283 59.4602 48.218 59.4586C48.1645 59.4506 48.1166 59.4531 48.1145 59.4531C48.0573 59.455 47.9735 59.4643 47.8847 59.4813C47.7952 59.4985 47.6752 59.5282 47.5568 59.5804C47.4495 59.6278 47.2764 59.7224 47.1636 59.9062C47.0259 60.1307 47.0374 60.3857 47.1448 60.6021C47.2376 60.7888 47.3992 60.9478 47.583 61.0888L48.1916 60.2954C48.0551 60.1906 48.0335 60.1433 48.0405 60.1573C48.0621 60.2008 48.085 60.3166 48.016 60.4291C47.9719 60.501 47.9246 60.5111 47.9604 60.4954C47.985 60.4845 48.0252 60.4726 48.073 60.4634C48.1216 60.4541 48.1522 60.4524 48.1465 60.4526C48.1445 60.4527 48.1387 60.4528 48.1303 60.4527C48.1269 60.4526 48.1018 60.4524 48.0692 60.4475C48.06 60.4461 48.0072 60.4388 47.9453 60.4118C47.9179 60.3999 47.8382 60.3633 47.7665 60.2801C47.6745 60.1735 47.6094 60.0007 47.666 59.8108C47.7094 59.6653 47.8041 59.586 47.8353 59.5614C47.8758 59.5295 47.9122 59.5111 47.9295 59.5028C47.9656 59.4856 47.9955 59.4769 48.0049 59.4742C48.0531 59.4604 48.0879 59.4596 48.0456 59.4636C47.9558 59.4723 47.6548 59.4899 46.9718 59.4899V60.4899ZM47.583 61.0888C48.4598 61.7613 49.3888 61.4812 50.0182 61.153C50.3359 60.9872 50.6196 60.7886 50.8214 60.6507C50.9286 60.5775 51.0041 60.5273 51.061 60.4949C51.0887 60.4792 51.1003 60.4745 51.0998 60.4746C51.0989 60.475 51.0905 60.4782 51.076 60.4816C51.0618 60.4849 51.0354 60.4899 51 60.4899V59.4899C50.889 59.4899 50.7957 59.52 50.7377 59.5425C50.675 59.5669 50.6163 59.5974 50.5664 59.6258C50.4681 59.6818 50.3591 59.7555 50.2574 59.825C50.0415 59.9724 49.8102 60.1336 49.5557 60.2663C49.0407 60.5349 48.5965 60.6059 48.1916 60.2954L47.583 61.0888Z" fill="#A7CF43"/>
<path d="M38 63H51V64H38V63Z" fill="#A7CF43"/>
<path fill-rule="evenodd" clip-rule="evenodd" d="M20.9735 18H57V19.0506H20.9735V18ZM20.9735 20.625H57V21.6756H20.9735V20.625ZM57 23.2539H20.9735V24.3045H57V23.2539ZM20.9735 25.8799H57V26.9305H20.9735V25.8799ZM57 28.5049H20.9735V29.5555H57V28.5049ZM20.9735 31.1299H57V32.1818H20.9735V31.1299ZM57 33.76H20.9735V34.8106H57V33.76ZM20.9735 36.385H57V37.436H20.9735V36.385ZM57 39.01H38.9863V40.0606H57V39.01Z" fill="#A7CF43"/>
<path d="M13.5 37.5H11.5V64.5H13.5V37.5Z" stroke="#A7CF43"/>
<path d="M11 65H14V67H11V65Z" fill="#A7CF43"/>
<path d="M12.144 34H12.8578L14 37H11L12.144 34Z" fill="#A7CF43"/>
<path d="M10.3105 59.5449L11 59L11 61.664H10.3105V59.5449Z" fill="#A7CF43"/>
<path d="M10 50.74H10.3086V61.923H10V50.74Z" fill="#A7CF43"/>
<path d="M10.3105 52.3801V51.3782C10.5266 51.4458 10.6846 51.6422 10.6846 51.8782C10.6846 52.1151 10.5266 52.3155 10.3105 52.3801Z" fill="#A7CF43"/>
</g>
<defs>
<clipPath id="clip0_321_373">
<rect width="70" height="70" fill="white"/>
</clipPath>
</defs>
</svg>
