<svg width="70" height="70" fill="none" xmlns="http://www.w3.org/2000/svg"><g clip-path="url(#clip0_319_295)"><path d="M28.5 62.5h36a5 5 0 005-5v-52a5 5 0 00-5-5h-27a5 5 0 00-5 5V8a5 5 0 01-5 5H25a4 4 0 00-4 4v0M34 2L21.5 15" stroke="#A7CF43"/><circle cx="54" cy="16" r="10.5" stroke="#A7CF43"/><path d="M38 30h16v1H38v-1zm18 0h9v1h-9v-1zm-18 5h8v1h-8v-1zm10 0h17v1H48v-1zm-10 5h13v1H38v-1zm15 0h12v1H53v-1zm-10 5h8v1h-8v-1zm10 0h2v1h-2v-1zm5 0h2v1h-2v-1zm5 0h2v1h-2v-1zm-25 5h16v1H38v-1zm18 0h9v1h-9v-1z" fill="#A7CF43"/><rect x="3.5" y="20.5" width="31" height="19" rx="4.5" stroke="#A7CF43"/><path d="M4 24l12.647 6.745a5 5 0 004.706 0L34 24" stroke="#A7CF43"/><circle cx="19" cy="53" r="8.5" stroke="#A7CF43"/><path d="M14 60v7.405c0 1.892 2.55 2.494 3.396.802v0c.661-1.321 2.547-1.321 3.208 0v0C21.45 69.9 24 69.297 24 67.405V60" stroke="#A7CF43"/><path d="M50.649 22h-1v1h1v-1zm0-2.312h1v-1h-1v1zm-1.479 0h-1v1h1v-1zm0-1.105v-1h-1v1h1zm1.479 0v1h1v-1h-1zm0-1.513h1v-1h-1v1zm-1.479 0h-1v1h1v-1zm0-1.292v-1h-1v1h1zm1.479 0v1h1v-1h-1zm0-5.916v-1h-1v1h1zm6.494.901l-.644.765.006.005.638-.77zm-.085 5.338l.637.771.007-.006-.644-.765zm-4.879.969v-1h-1v1h1zm0 1.513h-1v1h1v-1zm2.805 0h1v-1h-1v1zm0 1.105v1h1v-1h-1zm-2.805 0v-1h-1v1h1zm0 2.312v1h1v-1h-1zm3.604-6.732l-.507-.862-.008.005.515.857zm-3.604-4.114v-1h-1v1h1zm0 4.624h-1v1h1v-1zM51.649 22v-2.312h-2V22h2zm-1-3.312H49.17v2h1.479v-2zm-.479 1v-1.105h-2v1.105h2zm-1-.105h1.479v-2H49.17v2zm2.479-1V17.07h-2v1.513h2zm-1-2.513H49.17v2h1.479v-2zm-.479 1v-1.292h-2v1.292h2zm-1-.292h1.479v-2H49.17v2zm2.479-1V9.862h-2v5.916h2zm-1-4.916h3.196v-2h-3.196v2zm3.196 0c1.38 0 2.2.284 2.654.666l1.288-1.53c-.974-.82-2.353-1.136-3.942-1.136v2zm2.66.671c.447.37.726.93.726 1.848h2c0-1.372-.446-2.557-1.45-3.388l-1.276 1.54zm.726 1.848c0 .904-.292 1.514-.817 1.954l1.288 1.531c1.039-.873 1.529-2.077 1.529-3.485h-2zm-.81 1.949c-.532.44-1.416.74-2.814.74v2c1.64 0 3.056-.346 4.088-1.198L56.42 15.33zm-2.814.74h-1.428v2h1.428v-2zm-2.428 1v1.513h2V17.07h-2zm1 2.513h2.805v-2h-2.805v2zm1.805-1v1.105h2v-1.105h-2zm1 .105h-2.805v2h2.805v-2zm-3.805 1V22h2v-2.312h-2zm1 1.312h-1.53v2h1.53v-2zm1.207-4.222c1.12 0 2.125-.18 2.911-.652L55.27 14.41c-.348.209-.94.368-1.883.368v2zm2.904-.648c.98-.576 1.36-1.588 1.36-2.698h-2c0 .658-.198.87-.374.974l1.014 1.724zm1.36-2.698c0-.986-.315-1.89-1.096-2.503L55.318 12.5c.171.135.332.376.332.931h2zm-1.096-2.503c-.736-.578-1.749-.775-2.845-.775v2c.921 0 1.393.177 1.61.347l1.235-1.572zm-2.845-.775h-1.53v2h1.53v-2zm-2.53 1v4.624h2v-4.624h-2zm1 5.624h1.207v-2h-1.207v2z" fill="#A7CF43"/></g><defs><clipPath id="clip0_319_295"><path fill="#fff" d="M0 0h70v70H0z"/></clipPath></defs></svg>778H49.17V16.778ZM51.649 15.778V9.862H49.649V15.778H51.649ZM50.649 10.862H53.845V8.862H50.649V10.862ZM53.845 10.862C55.2252 10.862 56.0453 11.1463 56.4992 11.5282L57.7868 9.99777C56.8127 9.17834 55.4341 8.862 53.845 8.862V10.862ZM56.5052 11.5332C56.9518 11.903 57.231 12.4636 57.231 13.381H59.231C59.231 12.0091 58.7849 10.8243 57.7808 9.99281L56.5052 11.5332ZM57.231 13.381C57.231 14.2853 56.9391 14.8945 56.4145 15.3355L57.7015 16.8665C58.7409 15.9928 59.231 14.7887 59.231 13.381H57.231ZM56.4211 15.33C55.8886 15.7699 55.0045 16.07 53.607 16.07V18.07C55.2469 18.07 56.6634 17.7241 57.6949 16.872L56.4211 15.33ZM53.607 16.07H52.179V18.07H53.607V16.07ZM51.179 17.07V18.583H53.179V17.07H51.179ZM52.179 19.583H54.984V17.583H52.179V19.583ZM53.984 18.583V19.688H55.984V18.583H53.984ZM54.984 18.688H52.179V20.688H54.984V18.688ZM51.179 19.688V22H53.179V19.688H51.179ZM52.179 21H50.649V23H52.179V21ZM53.386 16.778C54.5057 16.778 55.5115 16.5971 56.2975 16.1255L55.2685 14.4105C54.9212 14.6189 54.329 14.778 53.386 14.778V16.778ZM56.29 16.1299C57.27 15.5535 57.65 14.5419 57.65 13.432H55.65C55.65 14.0901 55.452 14.3025 55.276 14.4061L56.29 16.1299ZM57.65 13.432C57.65 12.4461 57.335 11.5425 56.5538 10.9287L55.3182 12.5013C55.489 12.6355 55.65 12.8766 55.65 13.432H57.65ZM56.5538 10.9287C55.818 10.3506 54.8051 10.154 53.709 10.154V12.154C54.6302 12.154 55.102 12.3314 55.3182 12.5013L56.5538 10.9287ZM53.709 10.154H52.179V12.154H53.709V10.154ZM51.179 11.154V15.778H53.179V11.154H51.179ZM52.179 16.778H53.386V14.778H52.179V16.778Z" fill="#A7CF43"/>
</g>
<defs>
<clipPath id="clip0_319_295">
<rect width="70" height="70" fill="white"/>
</clipPath>
</defs>
</svg>
