<svg width="70" height="70" viewBox="0 0 70 70" fill="none" xmlns="http://www.w3.org/2000/svg">
<g clip-path="url(#clip0_334_513)">
<path d="M47 49.5L36 45V34L23.0001 39.7607V38.8563C22.9829 30.5681 25.2099 22.4218 29.4568 15.2381C33.3126 8.70858 39.1557 3.50531 46.1794 0.346663L47 0V49.5ZM37 44L46 48.5L45.8387 1.67302C39.4027 4.78726 34.0621 9.69221 30.4943 15.7656C26.5058 22.5194 24.3429 30.1478 24.2078 37.9369L37 32.1393V44Z" fill="#A7CF43"/>
<path d="M49.5 50.3319V69.4999H38.5V45.5H38.8915L49.5 50.3319Z" stroke="#A7CF43"/>
<path d="M41.5 50.5H43.5V52.5H41.5V50.5ZM41.5 55.5H43.5V57.5H41.5V55.5ZM44.5 55.5H46.5V57.5H44.5V55.5ZM41.5 60.5H43.5V62.5H41.5V60.5ZM44.5 60.5H46.5V62.5H44.5V60.5Z" stroke="#A7CF43"/>
<rect x="42.5" y="65.5" width="3" height="4" stroke="#A7CF43"/>
<path d="M9.5 60.3319V69.4999H20.5V55.5H20.1085L9.5 60.3319Z" stroke="#A7CF43"/>
<path d="M18.5 60.5H15.5V62.5H18.5V60.5ZM18.5 64.5H15.5V66.5H18.5V64.5ZM14.5 64.5H11.5V66.5H14.5V64.5Z" stroke="#A7CF43"/>
<path d="M37 69.9999H20V39.9999L37 32V69.9999ZM21 68.9999H36V33.9999L21 40.9999V68.9999Z" fill="#A7CF43"/>
<path d="M25 40H35V41H25V40Z" fill="#A7CF43"/>
<path d="M22 42H35V43H22V42Z" fill="#A7CF43"/>
<path d="M22 44H35V45H22V44Z" fill="#A7CF43"/>
<path d="M22 46H35V47H22V46Z" fill="#A7CF43"/>
<path d="M22 48H35V49H22V48Z" fill="#A7CF43"/>
<path d="M22 50H35V51H22V50Z" fill="#A7CF43"/>
<path d="M22 52H35V53H22V52Z" fill="#A7CF43"/>
<path d="M22 54H35V55H22V54Z" fill="#A7CF43"/>
<path d="M22 56H35V57H22V56Z" fill="#A7CF43"/>
<path d="M22 58H35V59H22V58Z" fill="#A7CF43"/>
<path d="M22 60H35V61H22V60Z" fill="#A7CF43"/>
<path d="M22 62H35V63H22V62Z" fill="#A7CF43"/>
<path d="M22.5 64.5H24.5V69.5H22.5V64.5ZM32.5 64.5H34.5V69.5H32.5V64.5ZM27.5 64.5H29.5V69.5H27.5V64.5Z" stroke="#A7CF43"/>
<path d="M46 49H59L59 30.9999L46 23V49ZM58 49H47V24.9999L58 31.9999V49Z" fill="#A7CF43"/>
<rect x="58" y="49" width="1" height="20" fill="#A7CF43"/>
<path d="M54.9231 31H48V32H54.9231V31Z" fill="#A7CF43"/>
<path d="M57 33H48V34H57V33Z" fill="#A7CF43"/>
<path d="M57 35H48V36H57V35Z" fill="#A7CF43"/>
<path d="M57 37H48V38H57V37Z" fill="#A7CF43"/>
<path d="M50.0769 48H57V49H50.0769V48Z" fill="#A7CF43"/>
<path d="M51 50H57V51H51V50Z" fill="#A7CF43"/>
<path d="M51 52H57V53H51V52Z" fill="#A7CF43"/>
<path d="M51 54H57V55H51V54Z" fill="#A7CF43"/>
<path d="M51 56H57V57H51V56Z" fill="#A7CF43"/>
<path d="M51 58H57V59H51V58Z" fill="#A7CF43"/>
<path d="M51 60H57V61H51V60Z" fill="#A7CF43"/>
<path d="M51 62H57V63H51V62Z" fill="#A7CF43"/>
<path d="M55.5 40.5H53.5V45.5H55.5V40.5ZM51.5 40.5H49.5V45.5H51.5V40.5Z" stroke="#A7CF43"/>
<path d="M55.5 64.5H52.5V69.5H55.5V64.5Z" stroke="#A7CF43"/>
<path d="M40 5H39V46H40V5Z" fill="#A7CF43"/>
<path d="M32 13H31V35H32V13Z" fill="#A7CF43"/>
<path d="M47 16H29V17H47V16Z" fill="#A7CF43"/>
<path d="M47 29H24V30H47V29Z" fill="#A7CF43"/>
<path d="M70 69H0V70H70V69Z" fill="#A7CF43"/>
</g>
<defs>
<clipPath id="clip0_334_513">
<rect width="70" height="70" fill="white"/>
</clipPath>
</defs>
</svg>
