<svg width="70" height="70" fill="none" xmlns="http://www.w3.org/2000/svg"><g clip-path="url(#clip0_321_373)"><path d="M30 66.5h31.5V9H23.666c-4.228 0-7.166 3.32-7.166 7.409V66.5H22" stroke="#A7CF43"/><path d="M65.594 63V4.398H28.598C24.408 4.398 21 5.304 21 9.5" stroke="#A7CF43"/><path d="M69.594 59V.398H32.598C28.408.398 25 .804 25 5m31.5 41.5h-8v4h8v-4zm-11 0h-24v4h24v-4zM25.1 65.392l3.4 3.4v-3.74l-3.4.34z" stroke="#A7CF43"/><path d="M26.9 65.392l-3.4-.34v3.74l3.4-3.4z" stroke="#A7CF43"/><path d="M26.207 56.602h0c-.12-.136-.294-.136-.414 0h0l-.159.178s0 0 0 0c-.235.266-.566.448-.893.55a2.044 2.044 0 01-1.05.058l-.234-.053h0l-.003-.001c-.113-.026-.192-.001-.238.031a.221.221 0 00-.091.174v.001l-.017.23h0v.003c-.027.356-.187.697-.392.967a1.972 1.972 0 01-.824.646h0l-.224.088s0 0 0 0c-.106.041-.146.102-.16.142-.013.039-.016.1.036.182 0 0 0 0 0 0l.127.195.001.002c.194.3.275.666.275 1.004 0 .339-.08.704-.274 1.004v.001l-.128.198-.001.002c-.052.08-.049.141-.036.18.014.04.054.1.16.142 0 0 0 0 0 0l.224.088h0c.332.13.617.374.824.646.205.27.365.612.392.968v.002l.017.23s0 0 0 0c.007.09.046.144.09.175.047.032.127.058.24.031l.234-.055h.002a2.05 2.05 0 011.05.058c.326.102.657.284.892.55l.157.174h0l.004.004c.12.137.291.137.412 0h0l.003-.004.158-.175c.235-.265.566-.447.892-.548a2.05 2.05 0 011.05-.06l.002.001.234.055s0 0 0 0c.113.027.192.001.239-.031a.22.22 0 00.09-.176h0l.019-.23v-.001c.026-.357.186-.698.39-.968.207-.272.493-.516.825-.646h0l.224-.088s0 0 0 0c.106-.042.146-.102.16-.143.013-.038.016-.099-.036-.18h0l-.129-.2h0A1.875 1.875 0 0130.053 61c0-.338.081-.704.274-1.004h0l.002-.003.127-.194c.052-.081.049-.143.036-.182-.014-.041-.054-.101-.157-.142l-.225-.087h0-.002a1.967 1.967 0 01-.824-.647 1.875 1.875 0 01-.391-.967l-.018-.232h0a.222.222 0 00-.091-.175c-.047-.033-.127-.058-.239-.032h-.003l-.234.054c-.346.08-.722.044-1.05-.058-.326-.102-.657-.284-.892-.55 0 0 0 0 0 0l-.159-.178z" stroke="#A7CF43"/><path d="M24.5 60.999a1.5 1.5 0 103 .002 1.5 1.5 0 00-3-.002z" stroke="#A7CF43"/><path d="M37.612 58.972a.5.5 0 00.776.631l-.776-.631zm2.768 1.72l.339.368.064-.06.04-.077-.443-.23zm.916-.702l-.484.126.484-.126zm1.098-.702l-.393.308.393-.308zm1.099 1.404l-.394.308.15.192h.244v-.5zm2.014-3.09l-.304.397.285.219.298-.2-.279-.416zm2.38-1.544l.305.396-.305-.397zM51 60.49a.5.5 0 000-1v1zm-12.612-.887a4.74 4.74 0 01.483-.513c.18-.163.324-.257.41-.289.04-.014.028 0-.018-.009a.219.219 0 01-.135-.081c-.012-.018.007 0 .02.098.014.094.018.236.002.438l.996.081a3 3 0 00-.007-.655 1.215 1.215 0 00-.191-.536.783.783 0 00-.507-.329.967.967 0 00-.507.056c-.268.099-.525.296-.733.484a5.777 5.777 0 00-.589.624l.776.631zm.762-.356c-.039.47-.033.845.014 1.137.045.281.137.551.33.74.22.22.5.262.736.207.208-.049.376-.167.489-.271l-.677-.736c-.04.037-.058.038-.039.033a.225.225 0 01.193.057c.029.028-.014.006-.045-.188-.029-.183-.04-.47-.005-.898l-.996-.081zm1.674 1.676c.116-.223.282-.487.411-.622.03-.03.044-.04.044-.04-.002 0-.013.008-.032.015a.322.322 0 01-.102.02.377.377 0 01-.287-.116c-.05-.054-.054-.094-.046-.064l.968-.252a.84.84 0 00-.19-.364.623.623 0 00-.485-.203.74.74 0 00-.371.126 1.274 1.274 0 00-.22.185c-.23.24-.45.608-.577.853l.887.462zm-.012-.807a.91.91 0 00.083.216.58.58 0 00.299.267.55.55 0 00.484-.046.697.697 0 00.183-.167c.066-.085.122-.188.161-.264a10.344 10.344 0 00.13-.252c.042-.082.08-.151.117-.205.04-.059.058-.073.052-.068a.28.28 0 01-.21.04c-.107-.018-.14-.079-.11-.041l.787-.616a.83.83 0 00-.505-.328.726.726 0 00-.57.151c-.12.092-.21.21-.275.305-.067.1-.125.207-.174.3l-.07.136a9.34 9.34 0 01-.104.199l-.016.027a.366.366 0 01.084-.07.451.451 0 01.612.148c.016.029.016.04.01.016l-.968.252zm1.189-.52L43.099 61l.788-.616-1.099-1.404-.787.616zm1.492 1.596c.27 0 .588-.037.895-.134.303-.096.629-.263.872-.546.254-.297.385-.685.343-1.145-.04-.443-.238-.932-.593-1.476l-.837.546c.304.468.414.8.434 1.02.019.204-.036.322-.107.404-.082.096-.22.182-.415.244-.192.06-.405.087-.592.087v1zm1.517-3.3a6.606 6.606 0 01-.347-.587 1.32 1.32 0 01-.116-.28c-.004-.017.002-.004-.002.029a.381.381 0 01-.271.312c-.053.015-.089.01-.092.01-.006 0 .001 0 .024.007.021.007.05.017.087.034.075.032.166.08.27.142.207.123.436.284.64.44l.608-.793a7.867 7.867 0 00-.737-.507 3.538 3.538 0 00-.379-.198 1.41 1.41 0 00-.408-.12c-.134-.013-.412-.008-.604.235-.174.222-.143.482-.114.62.065.299.275.697.604 1.201l.837-.546zm.776.125c.487-.327 1.19-.796 1.716-1.141a30.12 30.12 0 01.66-.423c.006-.003.006-.003.002 0-.003 0-.01.004-.02.008a.49.49 0 01-.53-.094.5.5 0 01-.085-.63.501.501 0 01.061-.078l.019-.018-.026.02.609.793a1.432 1.432 0 00.118-.1c.007-.008.038-.04.067-.087a.504.504 0 00-.084-.634.501.501 0 00-.463-.118c-.064.016-.115.044-.117.044a3.291 3.291 0 00-.137.08 31.15 31.15 0 00-.622.4c-.53.349-1.237.82-1.726 1.148l.558.83zm1.797-2.356c-.182.14-.509.473-.84.867-.337.403-.715.91-.99 1.416a3.814 3.814 0 00-.326.782c-.07.258-.105.55-.032.833.077.303.268.555.565.718.278.152.624.213 1.012.213v-1c-.299 0-.457-.05-.532-.09-.056-.031-.068-.057-.077-.09-.013-.052-.017-.154.03-.322.044-.164.126-.356.24-.568.23-.425.562-.874.876-1.249.322-.383.59-.646.683-.717l-.609-.793zm-.611 4.829a14.359 14.359 0 001.223-.037.611.611 0 00.165-.047.501.501 0 00-.016-.911.48.48 0 00-.126-.036c-.054-.008-.101-.006-.104-.006a1.588 1.588 0 00-.23.028 1.55 1.55 0 00-.327.1.86.86 0 00-.393.325.706.706 0 00-.02.696c.094.187.255.346.439.487l.609-.794c-.137-.104-.159-.152-.151-.138a.3.3 0 01-.025.272c-.044.072-.091.082-.056.066a.563.563 0 01.113-.032c.049-.009.08-.01.074-.01h-.017c-.003 0-.028 0-.06-.006a.498.498 0 01-.064-.973c.047-.014.082-.014.04-.01-.09.008-.391.026-1.074.026v1zm.611.599c.877.672 1.806.392 2.435.064.318-.166.602-.364.803-.502a3.9 3.9 0 01.24-.156c.028-.016.04-.02.039-.02l-.024.007a.336.336 0 01-.076.008v-1a.728.728 0 00-.262.052 1.315 1.315 0 00-.172.084 4.74 4.74 0 00-.309.199c-.215.147-.447.309-.701.441-.515.269-.96.34-1.364.03l-.609.793zM38 63h13v1H38v-1z" fill="#A7CF43"/><path fill-rule="evenodd" clip-rule="evenodd" d="M20.974 18H57v1.05H20.974V18zm0 2.625H57v1.05H20.974v-1.05zM57 23.254H20.974v1.05H57v-1.05zM20.974 25.88H57v1.05H20.974v-1.05zM57 28.505H20.974v1.05H57v-1.05zM20.974 31.13H57v1.052H20.974V31.13zM57 33.76H20.974v1.05H57v-1.05zm-36.026 2.625H57v1.051H20.974v-1.051zM57 39.01H38.986v1.05H57v-1.05z" fill="#A7CF43"/><path d="M13.5 37.5h-2v27h2v-27z" stroke="#A7CF43"/><path d="M11 65h3v2h-3v-2zm1.144-31h.714L14 37h-3l1.144-3zM10.31 59.545L11 59v2.664h-.69v-2.12zM10 50.74h.309v11.183H10V50.74zm.31 1.64v-1.002a.526.526 0 01.375.5.525.525 0 01-.375.502z" fill="#A7CF43"/></g><defs><clipPath id="clip0_321_373"><path fill="#fff" d="M0 0h70v70H0z"/></clipPath></defs></svg>89 59.6648C42.3081 59.6064 42.3268 59.5922 42.321 59.5966C42.3099 59.6051 42.2311 59.6585 42.1111 59.6376C42.0035 59.6188 41.971 59.558 42.0005 59.5957L42.7882 58.9796C42.6804 58.8417 42.5163 58.6931 42.2828 58.6524C42.0369 58.6095 41.838 58.7068 41.7124 58.8031C41.5922 58.8953 41.5022 59.0128 41.4384 59.1079C41.3715 59.2076 41.3129 59.3145 41.2644 59.4076C41.2398 59.4548 41.2162 59.5015 41.1948 59.5438C41.173 59.5872 41.1538 59.6251 41.1357 59.6599C41.1175 59.6948 41.1027 59.7219 41.0903 59.7428C41.0773 59.765 41.0719 59.7718 41.0736 59.7696C41.0748 59.768 41.081 59.7602 41.0923 59.7491C41.103 59.7386 41.1247 59.719 41.1576 59.6989C41.2284 59.6557 41.3779 59.5989 41.552 59.6657C41.6981 59.7217 41.7588 59.8282 41.77 59.8483C41.7856 59.8767 41.7861 59.8886 41.7796 59.8637L40.812 60.116ZM42.0005 59.5957C42.44 60.1575 42.916 60.7661 43.0991 61.0002L43.8868 60.384C43.7037 60.15 43.2276 59.5414 42.7882 58.9796L42.0005 59.5957ZM43.493 61.1921C43.7636 61.1921 44.0813 61.1553 44.3875 61.0581C44.6908 60.9618 45.0167 60.7952 45.2596 60.5119C45.5141 60.2149 45.6448 59.8267 45.6027 59.3668C45.5623 58.9244 45.3649 58.4349 45.0104 57.8911L44.1727 58.4372C44.4773 58.9046 44.5867 59.2366 44.6069 59.4578C44.6255 59.6615 44.5708 59.7789 44.5003 59.8611C44.4181 59.957 44.2794 60.0432 44.085 60.1049C43.8934 60.1657 43.6801 60.1921 43.493 60.1921V61.1921ZM45.0104 57.8911C44.8516 57.6474 44.7389 57.4548 44.6628 57.3054C44.5842 57.1512 44.5552 57.0637 44.5471 57.0259C44.5433 57.0081 44.5485 57.0209 44.5453 57.054C44.5418 57.0897 44.5269 57.161 44.4697 57.2338C44.4099 57.31 44.334 57.3493 44.2743 57.3659C44.2213 57.3806 44.1855 57.3767 44.1818 57.3763C44.1761 57.3757 44.1831 57.3759 44.2056 57.3829C44.2272 57.3896 44.2563 57.4004 44.2933 57.4167C44.3679 57.4494 44.459 57.4975 44.5626 57.5591C44.7697 57.6821 44.9994 57.8431 45.2027 57.9991L45.8113 57.2056C45.5875 57.0339 45.3243 56.8485 45.0736 56.6995C44.9484 56.625 44.8194 56.5556 44.6953 56.5011C44.578 56.4495 44.4343 56.3975 44.2873 56.3819C44.1529 56.3676 43.8746 56.3727 43.6834 56.6159C43.5092 56.8377 43.5397 57.098 43.5695 57.2361C43.6337 57.5348 43.8439 57.9329 44.1727 58.4372L45.0104 57.8911ZM45.7857 58.0175C46.2734 57.6902 46.9767 57.2208 47.5025 56.8758C47.767 56.7022 47.9811 56.5638 48.1005 56.4902C48.1303 56.4718 48.1503 56.4599 48.162 56.4532C48.1682 56.4497 48.168 56.45 48.1635 56.4523C48.1612 56.4534 48.1542 56.4569 48.144 56.4613C48.1382 56.4638 48.1106 56.4758 48.0724 56.4853C48.0549 56.4897 48.0111 56.4999 47.9537 56.5C47.9135 56.5001 47.7544 56.4971 47.6141 56.3672C47.4399 56.206 47.4442 56.0001 47.4635 55.9033C47.4809 55.8161 47.5175 55.7561 47.5292 55.7373C47.5572 55.6925 47.5859 55.6634 47.5901 55.6591C47.5996 55.6492 47.6068 55.6427 47.609 55.6407C47.6148 55.6355 47.6102 55.6399 47.583 55.6608L48.1916 56.4542C48.2194 56.433 48.2519 56.4075 48.2784 56.3836C48.2859 56.3769 48.2973 56.3663 48.31 56.3532C48.3173 56.3456 48.3482 56.3138 48.3774 56.267C48.3897 56.2473 48.4267 56.1865 48.4442 56.0986C48.4637 56.0012 48.4679 55.7948 48.2934 55.6333C48.1526 55.503 47.993 55.4999 47.952 55.5C47.8938 55.5001 47.8489 55.5105 47.8301 55.5151C47.7659 55.5312 47.7147 55.5586 47.7128 55.5595C47.696 55.568 47.6799 55.577 47.667 55.5843C47.6405 55.5994 47.6091 55.6184 47.5758 55.6389C47.4426 55.721 47.2173 55.8669 46.9539 56.0397C46.4238 56.3876 45.7172 56.8592 45.2284 57.1872L45.7857 58.0175ZM47.583 55.6608C47.4005 55.8008 47.0743 56.1341 46.7434 56.5282C46.4055 56.9306 46.0277 57.4378 45.7539 57.9437C45.617 58.1967 45.4986 58.463 45.4272 58.7256C45.357 58.9839 45.3222 59.2754 45.3945 59.5585C45.4722 59.8621 45.6631 60.1141 45.9598 60.2767C46.2381 60.4292 46.5836 60.4899 46.9718 60.4899V59.4899C46.6735 59.4899 46.5154 59.4409 46.4404 59.3997C46.3837 59.3687 46.3716 59.343 46.3634 59.3109C46.3499 59.2582 46.3465 59.1559 46.3922 58.9879C46.4367 58.8242 46.5186 58.6319 46.6334 58.4197C46.8631 57.9952 47.1949 57.5456 47.5092 57.1712C47.8306 56.7884 48.0995 56.5249 48.1916 56.4542L47.583 55.6608ZM46.9718 60.4899C47.6621 60.4899 48.0019 60.4724 48.141 60.4591C48.1594 60.4573 48.1776 60.4553 48.1946 60.453C48.2016 60.4521 48.2397 60.4472 48.2812 60.4353C48.2919 60.4322 48.3228 60.4231 48.3596 60.4056C48.3773 60.3972 48.414 60.3786 48.4546 60.3466C48.486 60.3218 48.5808 60.2423 48.6243 60.0967C48.681 59.9066 48.6157 59.7337 48.5237 59.627C48.4518 59.5437 48.3719 59.5069 48.3444 59.4949C48.2819 59.4677 48.2283 59.4602 48.218 59.4586C48.1645 59.4506 48.1166 59.4531 48.1145 59.4531C48.0573 59.455 47.9735 59.4643 47.8847 59.4813C47.7952 59.4985 47.6752 59.5282 47.5568 59.5804C47.4495 59.6278 47.2764 59.7224 47.1636 59.9062C47.0259 60.1307 47.0374 60.3857 47.1448 60.6021C47.2376 60.7888 47.3992 60.9478 47.583 61.0888L48.1916 60.2954C48.0551 60.1906 48.0335 60.1433 48.0405 60.1573C48.0621 60.2008 48.085 60.3166 48.016 60.4291C47.9719 60.501 47.9246 60.5111 47.9604 60.4954C47.985 60.4845 48.0252 60.4726 48.073 60.4634C48.1216 60.4541 48.1522 60.4524 48.1465 60.4526C48.1445 60.4527 48.1387 60.4528 48.1303 60.4527C48.1269 60.4526 48.1018 60.4524 48.0692 60.4475C48.06 60.4461 48.0072 60.4388 47.9453 60.4118C47.9179 60.3999 47.8382 60.3633 47.7665 60.2801C47.6745 60.1735 47.6094 60.0007 47.666 59.8108C47.7094 59.6653 47.8041 59.586 47.8353 59.5614C47.8758 59.5295 47.9122 59.5111 47.9295 59.5028C47.9656 59.4856 47.9955 59.4769 48.0049 59.4742C48.0531 59.4604 48.0879 59.4596 48.0456 59.4636C47.9558 59.4723 47.6548 59.4899 46.9718 59.4899V60.4899ZM47.583 61.0888C48.4598 61.7613 49.3888 61.4812 50.0182 61.153C50.3359 60.9872 50.6196 60.7886 50.8214 60.6507C50.9286 60.5775 51.0041 60.5273 51.061 60.4949C51.0887 60.4792 51.1003 60.4745 51.0998 60.4746C51.0989 60.475 51.0905 60.4782 51.076 60.4816C51.0618 60.4849 51.0354 60.4899 51 60.4899V59.4899C50.889 59.4899 50.7957 59.52 50.7377 59.5425C50.675 59.5669 50.6163 59.5974 50.5664 59.6258C50.4681 59.6818 50.3591 59.7555 50.2574 59.825C50.0415 59.9724 49.8102 60.1336 49.5557 60.2663C49.0407 60.5349 48.5965 60.6059 48.1916 60.2954L47.583 61.0888Z" fill="#A7CF43"/>
<path d="M38 63H51V64H38V63Z" fill="#A7CF43"/>
<path fill-rule="evenodd" clip-rule="evenodd" d="M20.9735 18H57V19.0506H20.9735V18ZM20.9735 20.625H57V21.6756H20.9735V20.625ZM57 23.2539H20.9735V24.3045H57V23.2539ZM20.9735 25.8799H57V26.9305H20.9735V25.8799ZM57 28.5049H20.9735V29.5555H57V28.5049ZM20.9735 31.1299H57V32.1818H20.9735V31.1299ZM57 33.76H20.9735V34.8106H57V33.76ZM20.9735 36.385H57V37.436H20.9735V36.385ZM57 39.01H38.9863V40.0606H57V39.01Z" fill="#A7CF43"/>
<path d="M13.5 37.5H11.5V64.5H13.5V37.5Z" stroke="#A7CF43"/>
<path d="M11 65H14V67H11V65Z" fill="#A7CF43"/>
<path d="M12.144 34H12.8578L14 37H11L12.144 34Z" fill="#A7CF43"/>
<path d="M10.3105 59.5449L11 59L11 61.664H10.3105V59.5449Z" fill="#A7CF43"/>
<path d="M10 50.74H10.3086V61.923H10V50.74Z" fill="#A7CF43"/>
<path d="M10.3105 52.3801V51.3782C10.5266 51.4458 10.6846 51.6422 10.6846 51.8782C10.6846 52.1151 10.5266 52.3155 10.3105 52.3801Z" fill="#A7CF43"/>
</g>
<defs>
<clipPath id="clip0_321_373">
<rect width="70" height="70" fill="white"/>
</clipPath>
</defs>
</svg>
