<svg width="70" height="70" viewBox="0 0 70 70" fill="none" xmlns="http://www.w3.org/2000/svg">
<path d="M24.6228 70H11.3772C11.2771 70 11.1812 69.9606 11.1105 69.8904C11.0397 69.8202 11 69.7249 11 69.6257V39.1762C10.9988 39.0904 11.0285 39.0071 11.0839 38.9412C11.1392 38.8752 11.2165 38.8312 11.3017 38.8169L24.5474 36.0318C24.5975 36.0108 24.6514 36 24.7058 36C24.7602 36 24.8141 36.0108 24.8642 36.0318C24.9063 36.0666 24.9402 36.1101 24.9637 36.1592C24.9871 36.2083 24.9995 36.262 25 36.3163V69.6257C25 69.7249 24.9602 69.8202 24.8895 69.8904C24.8188 69.9606 24.7228 70 24.6228 70ZM12 69H24V37L12 39.5775V69Z" fill="#A7CF43"/>
<path d="M46 70H36.5539V64.255C36.6295 64.0297 36.6495 63.7901 36.6122 63.5558C36.575 63.3214 36.4816 63.0991 36.3396 62.907C36.1977 62.7149 36.0113 62.5585 35.7957 62.4507C35.5802 62.3428 35.3416 62.2866 35.0995 62.2866C34.8575 62.2866 34.6189 62.3428 34.4033 62.4507C34.1877 62.5585 34.0013 62.7149 33.8594 62.907C33.7175 63.0991 33.624 63.3214 33.5868 63.5558C33.5495 63.7901 33.5695 64.0297 33.6451 64.255V70H24V0H46V70ZM37.7481 68.875L44.9768 69V1H25V69H32.5428V64.255C32.5428 63.5787 32.817 62.9301 33.3051 62.4519C33.7932 61.9737 34.4552 61.705 35.1454 61.705C35.8357 61.705 36.4977 61.9737 36.9858 62.4519C37.4739 62.9301 37.7481 63.5787 37.7481 64.255V68.875Z" fill="#A7CF43"/>
<path d="M14.5 45.5H16.5V47.5H14.5V45.5ZM19.5 40.5H21.5V42.5H19.5V40.5ZM19.5 45.5H21.5V47.5H19.5V45.5ZM14.5 51.5H16.5V53.5H14.5V51.5ZM19.5 51.5H21.5V53.5H19.5V51.5ZM14.5 57.5H16.5V59.5H14.5V57.5ZM19.5 57.5H21.5V59.5H19.5V57.5ZM14.5 63.5H16.5V65.5H14.5V63.5ZM19.5 63.5H21.5V65.5H19.5V63.5Z" stroke="#A7CF43"/>
<path d="M58 70H45V25H58V70ZM46 69H57V26H46V69Z" fill="#A7CF43"/>
<path d="M45.6099 31H24.3901C24.2866 31 24.1874 30.9473 24.1142 30.8536C24.0411 30.7598 24 30.6326 24 30.5C24 30.3674 24.0411 30.2402 24.1142 30.1464C24.1874 30.0527 24.2866 30 24.3901 30H45.6099C45.7134 30 45.8126 30.0527 45.8857 30.1464C45.9589 30.2402 46 30.3674 46 30.5C45.9961 30.631 45.9538 30.7553 45.8815 30.8481C45.8091 30.9408 45.7122 30.9951 45.6099 31Z" fill="#A7CF43"/>
<path d="M45.6099 21H24.3901C24.2866 21 24.1874 20.9473 24.1142 20.8536C24.0411 20.7598 24 20.6326 24 20.5C24 20.3674 24.0411 20.2402 24.1142 20.1464C24.1874 20.0527 24.2866 20 24.3901 20H45.6099C45.7134 20 45.8126 20.0527 45.8857 20.1464C45.9589 20.2402 46 20.3674 46 20.5C45.9961 20.631 45.9538 20.7553 45.8815 20.8481C45.8091 20.9408 45.7122 20.9951 45.6099 21Z" fill="#A7CF43"/>
<path d="M45.6099 11H24.3901C24.2866 11 24.1874 10.9473 24.1142 10.8536C24.0411 10.7598 24 10.6326 24 10.5C24 10.3674 24.0411 10.2402 24.1142 10.1464C24.1874 10.0527 24.2866 10 24.3901 10H45.6099C45.7134 10 45.8126 10.0527 45.8857 10.1464C45.9589 10.2402 46 10.3674 46 10.5C45.9961 10.631 45.9538 10.7553 45.8815 10.8481C45.8091 10.9408 45.7122 10.9951 45.6099 11Z" fill="#A7CF43"/>
<path d="M45.6099 41H24.3901C24.2866 41 24.1874 40.9473 24.1142 40.8535C24.0411 40.7598 24 40.6326 24 40.5C24 40.3674 24.0411 40.2402 24.1142 40.1464C24.1874 40.0527 24.2866 40 24.3901 40H45.6099C45.7134 40 45.8126 40.0527 45.8857 40.1464C45.9589 40.2402 46 40.3674 46 40.5C45.9961 40.631 45.9538 40.7553 45.8815 40.8481C45.8091 40.9408 45.7122 40.9951 45.6099 41Z" fill="#A7CF43"/>
<path d="M45.6099 50H24.3901C24.2866 50 24.1874 49.9473 24.1142 49.8536C24.0411 49.7598 24 49.6326 24 49.5C24 49.3674 24.0411 49.2402 24.1142 49.1464C24.1874 49.0527 24.2866 49 24.3901 49H45.6099C45.7134 49 45.8126 49.0527 45.8857 49.1464C45.9589 49.2402 46 49.3674 46 49.5C45.9961 49.631 45.9538 49.7554 45.8815 49.8481C45.8091 49.9408 45.7122 49.9951 45.6099 50Z" fill="#A7CF43"/>
<path d="M45.6099 59H24.3901C24.2866 59 24.1874 58.9473 24.1142 58.8535C24.0411 58.7598 24 58.6326 24 58.5C24 58.3674 24.0411 58.2402 24.1142 58.1464C24.1874 58.0527 24.2866 58 24.3901 58H45.6099C45.7134 58 45.8126 58.0527 45.8858 58.1464C45.9589 58.2402 46 58.3674 46 58.5C46 58.6326 45.9589 58.7598 45.8858 58.8535C45.8126 58.9473 45.7134 59 45.6099 59Z" fill="#A7CF43"/>
<path d="M31.5 59C31.3674 59 31.2402 58.9612 31.1464 58.8921C31.0527 58.823 31 58.7293 31 58.6316V0.86836C31 0.770664 31.0527 0.676971 31.1464 0.60789C31.2402 0.538809 31.3674 0.5 31.5 0.5C31.6326 0.5 31.7598 0.538809 31.8536 0.60789C31.9473 0.676971 32 0.770664 32 0.86836V58.6316C32 58.7293 31.9473 58.823 31.8536 58.8921C31.7598 58.9612 31.6326 59 31.5 59Z" fill="#A7CF43"/>
<path d="M38.5 59C38.3674 59 38.2402 58.9604 38.1464 58.8898C38.0527 58.8193 38 58.7236 38 58.6238L38 0.876158C38 0.776395 38.0527 0.680717 38.1464 0.610174C38.2402 0.539631 38.3674 0.5 38.5 0.5C38.6326 0.5 38.7598 0.539631 38.8536 0.610174C38.9473 0.680717 39 0.776395 39 0.876158V58.6238C39 58.7236 38.9473 58.8193 38.8536 58.8898C38.7598 58.9604 38.6326 59 38.5 59Z" fill="#A7CF43"/>
<path d="M70 69H0V70H70V69Z" fill="#A7CF43"/>
<path d="M20.52 37.5C20.3821 37.5 20.2498 37.4804 20.1523 37.4455C20.0548 37.4105 20 37.3632 20 37.3138V32.1862C20 32.1369 20.0548 32.0895 20.1523 32.0546C20.2498 32.0196 20.3821 32 20.52 32C20.6509 32.0036 20.7731 32.0248 20.8621 32.0594C20.9511 32.0939 21.0004 32.1392 21 32.1862V37.3138C21.0004 37.3608 20.9511 37.4061 20.8621 37.4406C20.7731 37.4752 20.6509 37.4964 20.52 37.5Z" fill="#A7CF43"/>
<path d="M48.5 28.5H50.5V30.5H48.5V28.5ZM52.5 28.5H54.5V30.5H52.5V28.5ZM48.5 33.5H50.5V35.5H48.5V33.5ZM52.5 33.5H54.5V35.5H52.5V33.5ZM48.5 38.5H50.5V40.5H48.5V38.5ZM52.5 38.5H54.5V40.5H52.5V38.5ZM48.5 43.5H50.5V45.5H48.5V43.5ZM52.5 43.5H54.5V45.5H52.5V43.5ZM48.5 48.5H50.5V50.5H48.5V48.5ZM52.5 48.5H54.5V50.5H52.5V48.5ZM48.5 53.5H50.5V55.5H48.5V53.5ZM52.5 53.5H54.5V55.5H52.5V53.5ZM48.5 58.5H50.5V60.5H48.5V58.5ZM52.5 58.5H54.5V60.5H52.5V58.5ZM48.5 63.5H50.5V65.5H48.5V63.5ZM52.5 63.5H54.5V65.5H52.5V63.5Z" stroke="#A7CF43"/>
</svg>
