<?xml version="1.0" encoding="utf-8"?><svg viewBox="0 0 512 512" xmlns="http://www.w3.org/2000/svg" xmlns:xlink="http://www.w3.org/1999/xlink"><style>:root>svg{display:none}:root>svg:target{display:block}</style><svg fill="none" viewBox="0 0 21 8" id="arrow-right" xmlns="http://www.w3.org/2000/svg"><path d="M20.354 4.354a.5.5 0 000-.708L17.172.464a.5.5 0 10-.707.708L19.293 4l-2.828 2.828a.5.5 0 10.707.708l3.182-3.182zM0 4.5h20v-1H0v1z" fill="#475256"/></svg><svg fill="none" viewBox="0 0 40 8" id="arrow-right-2" xmlns="http://www.w3.org/2000/svg"><path d="M39.255 4.354a.5.5 0 000-.708L36.074.464a.5.5 0 10-.708.708L38.195 4l-2.829 2.828a.5.5 0 10.708.708l3.181-3.182zM0 4.5h38.902v-1H0v1z" fill="#475256"/></svg><svg aria-hidden="true" data-prefix="fas" data-icon="envelope" class="csvg-inline--fa cfa-envelope cfa-w-16" viewBox="0 0 512 512" id="icon-letter" xmlns="http://www.w3.org/2000/svg"><path fill="currentColor" d="M502.3 190.8c3.9-3.1 9.7-.2 9.7 4.7V400c0 26.5-21.5 48-48 48H48c-26.5 0-48-21.5-48-48V195.6c0-5 5.7-7.8 9.7-4.7 22.4 17.4 52.1 39.5 154.1 113.6 21.1 15.4 56.7 47.8 92.2 47.6 35.7.3 72-32.8 92.3-47.6 102-74.1 131.6-96.3 154-113.7zM256 320c23.2.4 56.6-29.2 73.4-41.4 132.7-96.3 142.8-104.7 173.4-128.7 5.8-4.5 9.2-11.5 9.2-18.9v-19c0-26.5-21.5-48-48-48H48C21.5 64 0 85.5 0 112v19c0 7.4 3.4 14.3 9.2 18.9 30.6 23.9 40.7 32.4 173.4 128.7 16.8 12.2 50.2 41.8 73.4 41.4z"/></svg><svg aria-hidden="true" data-prefix="fas" data-icon="plus-square" class="dsvg-inline--fa dfa-plus-square dfa-w-14" viewBox="0 0 448 512" id="icon-plus" xmlns="http://www.w3.org/2000/svg"><path fill="currentColor" d="M400 32H48C21.5 32 0 53.5 0 80v352c0 26.5 21.5 48 48 48h352c26.5 0 48-21.5 48-48V80c0-26.5-21.5-48-48-48zm-32 252c0 6.6-5.4 12-12 12h-92v92c0 6.6-5.4 12-12 12h-56c-6.6 0-12-5.4-12-12v-92H92c-6.6 0-12-5.4-12-12v-56c0-6.6 5.4-12 12-12h92v-92c0-6.6 5.4-12 12-12h56c6.6 0 12 5.4 12 12v92h92c6.6 0 12 5.4 12 12v56z"/></svg><svg aria-hidden="true" data-prefix="fas" data-icon="plus-circle" class="esvg-inline--fa efa-plus-circle efa-w-16" viewBox="0 0 512 512" id="icon-reg" xmlns="http://www.w3.org/2000/svg"><path fill="currentColor" d="M256 8C119 8 8 119 8 256s111 248 248 248 248-111 248-248S393 8 256 8zm144 276c0 6.6-5.4 12-12 12h-92v92c0 6.6-5.4 12-12 12h-56c-6.6 0-12-5.4-12-12v-92h-92c-6.6 0-12-5.4-12-12v-56c0-6.6 5.4-12 12-12h92v-92c0-6.6 5.4-12 12-12h56c6.6 0 12 5.4 12 12v92h92c6.6 0 12 5.4 12 12v56z"/></svg><svg aria-hidden="true" data-prefix="fas" data-icon="user" class="fsvg-inline--fa ffa-user ffa-w-14" viewBox="0 0 448 512" id="icon-user" xmlns="http://www.w3.org/2000/svg"><path fill="currentColor" d="M224 256c70.7 0 128-57.3 128-128S294.7 0 224 0 96 57.3 96 128s57.3 128 128 128zm89.6 32h-16.7c-22.2 10.2-46.9 16-72.9 16s-50.6-5.8-72.9-16h-16.7C60.2 288 0 348.2 0 422.4V464c0 26.5 21.5 48 48 48h352c26.5 0 48-21.5 48-48v-41.6c0-74.2-60.2-134.4-134.4-134.4z"/></svg></svg>