<svg width="12" height="7" viewBox="0 0 12 7" fill="none" xmlns="http://www.w3.org/2000/svg">
<path d="M0.646447 5.64645C0.451184 5.84171 0.451184 6.15829 0.646447 6.35355C0.841709 6.54882 1.15829 6.54882 1.35355 6.35355L0.646447 5.64645ZM6 1L6.35355 0.646446C6.15829 0.451184 5.84171 0.451184 5.64645 0.646447L6 1ZM10.6464 6.35355C10.8417 6.54882 11.1583 6.54882 11.3536 6.35355C11.5488 6.15829 11.5488 5.84171 11.3536 5.64645L10.6464 6.35355ZM1.35355 6.35355L6.35355 1.35355L5.64645 0.646447L0.646447 5.64645L1.35355 6.35355ZM5.64645 1.35355L10.6464 6.35355L11.3536 5.64645L6.35355 0.646446L5.64645 1.35355Z" fill="white"/>
</svg>
